<?xml version="1.0" encoding="UTF-8" standalone="no"?>
<!-- Created with Inkscape (http://www.inkscape.org/) -->

<svg
   xmlns:dc="http://purl.org/dc/elements/1.1/"
   xmlns:cc="http://creativecommons.org/ns#"
   xmlns:rdf="http://www.w3.org/1999/02/22-rdf-syntax-ns#"
   xmlns:svg="http://www.w3.org/2000/svg"
   xmlns="http://www.w3.org/2000/svg"
   xmlns:sodipodi="http://sodipodi.sourceforge.net/DTD/sodipodi-0.dtd"
   xmlns:inkscape="http://www.inkscape.org/namespaces/inkscape"
   id="svg2"
   version="1.1"
   inkscape:version="0.91 r13725"
   xml:space="preserve"
   width="100"
   height="100"
   viewBox="0 0 99.999999 99.999996"
   sodipodi:docname="crosshairs.svg"><metadata
     id="metadata8"><rdf:RDF><cc:Work
         rdf:about=""><dc:format>image/svg+xml</dc:format><dc:type
           rdf:resource="http://purl.org/dc/dcmitype/StillImage" /><dc:title></dc:title></cc:Work></rdf:RDF></metadata><defs
     id="defs6"><clipPath
       clipPathUnits="userSpaceOnUse"
       id="clipPath254"><path
         d="m 4598.67,6758.48 c 0,68.18 -55.26,123.44 -123.44,123.44 -68.17,0 -123.44,-55.26 -123.44,-123.44 0,-68.17 55.27,-123.44 123.44,-123.44 68.18,0 123.44,55.27 123.44,123.44 z"
         id="path256"
         inkscape:connector-curvature="0" /></clipPath></defs><sodipodi:namedview
     pagecolor="#ffffff"
     bordercolor="#666666"
     borderopacity="1"
     objecttolerance="10"
     gridtolerance="10"
     guidetolerance="10"
     inkscape:pageopacity="0"
     inkscape:pageshadow="2"
     inkscape:window-width="1920"
     inkscape:window-height="1024"
     id="namedview4"
     showgrid="false"
     fit-margin-top="0"
     fit-margin-left="0"
     fit-margin-right="0"
     fit-margin-bottom="0"
     inkscape:zoom="4.043909"
     inkscape:cx="28.301483"
     inkscape:cy="66.367119"
     inkscape:window-x="0"
     inkscape:window-y="0"
     inkscape:window-maximized="1"
     inkscape:current-layer="g4613" /><g
     id="g10"
     inkscape:groupmode="layer"
     inkscape:label="ink_ext_XXXXXX"
     transform="matrix(1.25,0,0,-1.25,-613.62982,234.01086)"
     style="display:none"><g
       id="g12"
       transform="scale(0.1,0.1)"><path
         d="m 2414.42,91.3711 c 0,-7.0313 1.1,-13.0117 3.28,-17.9492 2.19,-4.9414 5.18,-8.6602 8.97,-11.1524 3.81,-2.5078 7.95,-3.7695 12.45,-3.7695 4.56,0 8.72,1.1914 12.49,3.582 3.77,2.3594 6.77,6.0078 9.02,10.8985 2.25,4.9179 3.37,11.0586 3.37,18.3906 0,6.9102 -1.12,12.8399 -3.37,17.8279 -2.25,4.961 -5.28,8.75 -9.12,11.391 -3.83,2.621 -8.02,3.93 -12.58,3.93 -4.75,0 -8.99,-1.352 -12.73,-4.04 -3.73,-2.679 -6.63,-6.539 -8.69,-11.578 -2.06,-5.043 -3.09,-10.8825 -3.09,-17.5309 z m 51.01,-38.082 0,2.5703 c -3.49,-3.9883 -6.92,-7.2383 -10.31,-9.7305 -3.38,-2.5078 -7.06,-4.418 -11.02,-5.6992 -3.95,-1.3203 -8.27,-1.9609 -12.96,-1.9609 -6.21,0 -11.96,1.3125 -17.24,3.9414 -5.29,2.6211 -9.86,6.3789 -13.72,11.2617 -3.87,4.8672 -6.8,10.5898 -8.79,17.1875 -1.99,6.5898 -2.99,13.7109 -2.99,21.3594 0,16.2112 3.96,28.8592 11.87,37.9102 7.92,9.051 18.33,13.582 31.25,13.582 7.47,0 13.77,-1.289 18.9,-3.84 5.13,-2.57 10.13,-6.519 15.01,-11.832 l 0,38.27 c 0,5.332 1.05,9.339 3.18,12.062 2.12,2.731 5.14,4.09 9.07,4.09 3.93,0 6.94,-1.25 9.07,-3.75 2.12,-2.512 3.18,-6.18 3.18,-11.07 l 0,-114.3519 c 0,-4.9375 -1.13,-8.6485 -3.42,-11.1172 -2.28,-2.461 -5.22,-3.7031 -8.83,-3.7031 -3.54,0 -6.47,1.2812 -8.79,3.8398 -2.31,2.582 -3.46,6.2305 -3.46,10.9805"
         style="fill:#4c4b4b;fill-opacity:1;fill-rule:nonzero;stroke:none"
         id="path14"
         inkscape:connector-curvature="0" /><path
         d="m 2529.05,99.5391 47.02,0 c -0.63,8.8589 -3.03,15.4999 -7.17,19.9019 -4.15,4.399 -9.61,6.598 -16.39,6.598 -6.46,0 -11.76,-2.23 -15.9,-6.687 -4.15,-4.461 -6.66,-11.071 -7.56,-19.8129 z m 50.71,-14.7305 -50.71,0 c 0.07,-5.8789 1.25,-11.0703 3.57,-15.5664 2.3,-4.5 5.38,-7.8906 9.21,-10.1641 3.83,-2.289 8.06,-3.4101 12.68,-3.4101 3.1,0 5.93,0.3515 8.5,1.0742 2.57,0.7461 5.05,1.8672 7.46,3.4297 2.41,1.539 4.62,3.207 6.64,4.9883 2.03,1.7812 4.65,4.1914 7.88,7.2304 1.33,1.1289 3.24,1.711 5.71,1.711 2.66,0 4.81,-0.7422 6.45,-2.2032 1.64,-1.457 2.48,-3.5078 2.48,-6.1679 0,-2.3516 -0.93,-5.0703 -2.76,-8.211 -1.85,-3.1406 -4.61,-6.1484 -8.31,-9.0273 -3.72,-2.8828 -8.36,-5.2617 -13.97,-7.1719 -5.6,-1.9023 -12.04,-2.8515 -19.33,-2.8515 -16.64,0 -29.6,4.7617 -38.84,14.25 -9.24,9.4921 -13.86,22.3828 -13.86,38.6523 0,7.668 1.13,14.7769 3.41,21.3199 2.29,6.559 5.61,12.18 9.97,16.868 4.37,4.683 9.75,8.269 16.15,10.781 6.4,2.5 13.49,3.738 21.28,3.738 10.13,0 18.82,-2.117 26.06,-6.406 7.26,-4.274 12.69,-9.793 16.3,-16.563 3.6,-6.777 5.41,-13.687 5.41,-20.699 0,-6.5389 -1.87,-10.7616 -5.6,-12.6991 -3.73,-1.9218 -8.99,-2.9023 -15.78,-2.9023"
         style="fill:#4c4b4b;fill-opacity:1;fill-rule:nonzero;stroke:none"
         id="path16"
         inkscape:connector-curvature="0" /><path
         d="m 2697.91,72.3906 c 0,-7.1601 -1.73,-13.289 -5.22,-18.3906 -3.48,-5.0977 -8.62,-8.9687 -15.43,-11.5898 -6.81,-2.6289 -15.09,-3.9414 -24.84,-3.9414 -9.31,0 -17.28,1.4296 -23.93,4.2812 -6.65,2.8398 -11.56,6.4219 -14.72,10.6719 -3.17,4.289 -4.75,8.5664 -4.75,12.8789 0,2.8594 1,5.289 3.04,7.3086 2.02,2.0195 4.59,3.039 7.7,3.039 2.71,0 4.79,-0.6679 6.25,-2 1.46,-1.3164 2.86,-3.1992 4.18,-5.5898 2.66,-4.6406 5.85,-8.0664 9.56,-10.3594 3.7,-2.2773 8.74,-3.4179 15.15,-3.4179 5.19,0 9.45,1.1601 12.77,3.4687 3.32,2.3203 4.98,4.9609 4.98,7.9414 0,4.5586 -1.72,7.8672 -5.18,9.957 -3.45,2.0899 -9.13,4.0899 -17.05,5.9922 -8.92,2.211 -16.19,4.5391 -21.79,6.9805 -5.61,2.4297 -10.09,5.6484 -13.44,9.6289 -3.35,4 -5.03,8.91 -5.03,14.73 0,5.192 1.54,10.098 4.65,14.731 3.1,4.609 7.68,8.301 13.73,11.051 6.04,2.769 13.33,4.14 21.88,4.14 6.72,0 12.75,-0.691 18.09,-2.101 5.36,-1.371 9.83,-3.262 13.4,-5.602 3.58,-2.34 6.3,-4.929 8.17,-7.777 1.86,-2.852 2.8,-5.633 2.8,-8.371 0,-2.961 -1,-5.41 -2.99,-7.313 -1.99,-1.879 -4.82,-2.847 -8.5,-2.847 -2.67,0 -4.93,0.757 -6.79,2.289 -1.87,1.519 -4,3.789 -6.41,6.832 -1.97,2.527 -4.26,4.558 -6.93,6.078 -2.66,1.531 -6.27,2.281 -10.84,2.281 -4.68,0 -8.57,-0.992 -11.68,-3 -3.1,-1.98 -4.65,-4.461 -4.65,-7.441 0,-2.731 1.14,-4.961 3.41,-6.7 2.29,-1.75 5.36,-3.191 9.23,-4.332 3.86,-1.128 9.17,-2.519 15.95,-4.168 8.04,-1.9683 14.6,-4.3081 19.71,-7.0308 5.09,-2.7109 8.95,-5.9297 11.59,-9.6484 2.63,-3.6992 3.93,-7.9219 3.93,-12.6602"
         style="fill:#4c4b4b;fill-opacity:1;fill-rule:nonzero;stroke:none"
         id="path18"
         inkscape:connector-curvature="0" /><path
         d="m 2737.23,129.18 0,-74.9378 c 0,-5.1914 -1.23,-9.1328 -3.71,-11.7813 -2.47,-2.6601 -5.6,-3.9921 -9.4,-3.9921 -3.8,0 -6.89,1.3593 -9.26,4.082 -2.38,2.7305 -3.56,6.6289 -3.56,11.6914 l 0,74.1798 c 0,5.117 1.18,8.988 3.56,11.59 2.37,2.59 5.46,3.89 9.26,3.89 3.8,0 6.93,-1.3 9.4,-3.89 2.48,-2.602 3.71,-6.223 3.71,-10.832 z m -12.83,26.769 c -3.6,0 -6.69,1.121 -9.25,3.332 -2.57,2.207 -3.85,5.34 -3.85,9.41 0,3.68 1.31,6.688 3.94,9.071 2.63,2.379 5.69,3.558 9.16,3.558 3.36,0 6.34,-1.07 8.93,-3.23 2.6,-2.16 3.9,-5.281 3.9,-9.399 0,-4 -1.27,-7.113 -3.81,-9.359 -2.53,-2.242 -5.53,-3.383 -9.02,-3.383"
         style="fill:#4c4b4b;fill-opacity:1;fill-rule:nonzero;stroke:none"
         id="path20"
         inkscape:connector-curvature="0" /><path
         d="m 2775.69,92.0391 c 0,-10.5078 2.29,-18.461 6.88,-23.8399 4.59,-5.3906 10.53,-8.0781 17.81,-8.0781 4.3,0 8.37,1.1602 12.2,3.4687 3.84,2.3086 6.95,5.8008 9.36,10.4493 2.4,4.6601 3.61,10.3007 3.61,16.9531 0,10.5668 -2.32,18.8088 -6.98,24.6878 -4.66,5.89 -10.78,8.84 -18.39,8.84 -7.41,0 -13.34,-2.821 -17.8,-8.461 -4.47,-5.618 -6.69,-13.637 -6.69,-24.0199 z m 75.13,32.8589 0,-75.3082 c 0,-8.621 -0.93,-16.0312 -2.77,-22.2382 -1.82,-6.1914 -4.77,-11.3321 -8.83,-15.3828 -4.05,-4.03911 -9.35,-7.05864 -15.9,-9.01958 -6.55,-1.968751 -14.71,-2.9375012 -24.46,-2.9375012 -8.93,0 -16.91,1.2500012 -23.94,3.7500012 -7.02,2.50781 -12.43,5.72656 -16.24,9.67968 -3.79,3.957 -5.7,8.0274 -5.7,12.207 0,3.1602 1.08,5.7539 3.24,7.7305 2.14,2.0117 4.75,3 7.78,3 3.8,0 7.12,-1.6797 9.97,-5.0273 1.39,-1.711 2.83,-3.4414 4.32,-5.1797 1.49,-1.7539 3.14,-3.2305 4.94,-4.4727 1.81,-1.2304 3.98,-2.1406 6.51,-2.75 2.53,-0.5898 5.45,-0.8984 8.74,-0.8984 6.71,0 11.92,0.9297 15.63,2.8086 3.7,1.8594 6.3,4.4804 7.78,7.8398 1.49,3.3399 2.36,6.9297 2.62,10.7696 0.25,3.8398 0.44,9.9921 0.56,18.4804 -3.99,-5.5781 -8.59,-9.8281 -13.82,-12.7383 -5.22,-2.9101 -11.45,-4.3593 -18.66,-4.3593 -8.67,0 -16.25,2.207 -22.75,6.6484 -6.49,4.4297 -11.48,10.6289 -14.95,18.6094 -3.49,7.9922 -5.22,17.1914 -5.22,27.6406 0,7.781 1.05,14.82 3.17,21.078 2.13,6.281 5.15,11.563 9.07,15.871 3.93,4.313 8.46,7.551 13.58,9.742 5.13,2.168 10.76,3.27 16.91,3.27 7.34,0 13.71,-1.422 19.09,-4.223 5.38,-2.828 10.39,-7.246 15.01,-13.258 l 0,3.52 c 0,4.492 1.1,7.969 3.32,10.449 2.22,2.461 5.07,3.703 8.55,3.703 5,0 8.32,-1.64 9.97,-4.89 1.65,-3.262 2.48,-7.973 2.48,-14.114"
         style="fill:#4c4b4b;fill-opacity:1;fill-rule:nonzero;stroke:none"
         id="path22"
         inkscape:connector-curvature="0" /><path
         d="m 2892.03,129.559 0,-3.137 c 4.55,6.019 9.54,10.43 14.95,13.25 5.42,2.816 11.63,4.23 18.66,4.23 6.84,0 12.95,-1.492 18.34,-4.472 5.37,-2.981 9.41,-7.188 12.05,-12.621 1.72,-3.168 2.83,-6.598 3.33,-10.258 0.51,-3.68 0.77,-8.36 0.77,-14.063 l 0,-48.2458 c 0,-5.1914 -1.19,-9.1328 -3.57,-11.7813 -2.37,-2.6601 -5.46,-3.9921 -9.26,-3.9921 -3.86,0 -6.99,1.3593 -9.4,4.082 -2.41,2.7305 -3.61,6.6289 -3.61,11.6914 l 0,43.2187 c 0,8.5391 -1.19,15.0781 -3.56,19.6091 -2.38,4.52 -7.11,6.789 -14.21,6.789 -4.61,0 -8.83,-1.371 -12.62,-4.129 -3.8,-2.761 -6.59,-6.55 -8.36,-11.359 -1.27,-3.859 -1.9,-11.0702 -1.9,-21.6522 l 0,-32.4766 c 0,-5.2539 -1.23,-9.2109 -3.66,-11.832 -2.43,-2.6289 -5.58,-3.9414 -9.44,-3.9414 -3.75,0 -6.81,1.3593 -9.22,4.082 -2.4,2.7305 -3.61,6.6289 -3.61,11.6914 l 0,74.9378 c 0,4.941 1.07,8.629 3.23,11.07 2.15,2.43 5.09,3.652 8.82,3.652 2.29,0 4.35,-0.543 6.19,-1.621 1.83,-1.082 3.31,-2.691 4.42,-4.832 1.1,-2.16 1.66,-4.797 1.66,-7.89"
         style="fill:#4c4b4b;fill-opacity:1;fill-rule:nonzero;stroke:none"
         id="path24"
         inkscape:connector-curvature="0" /><path
         d="m 2999.06,99.5391 47.01,0 c -0.63,8.8589 -3.02,15.4999 -7.17,19.9019 -4.15,4.399 -9.61,6.598 -16.38,6.598 -6.47,0 -11.77,-2.23 -15.92,-6.687 -4.15,-4.461 -6.65,-11.071 -7.54,-19.8129 z m 50.71,-14.7305 -50.71,0 c 0.07,-5.8789 1.24,-11.0703 3.56,-15.5664 2.31,-4.5 5.38,-7.8906 9.22,-10.1641 3.81,-2.289 8.05,-3.4101 12.67,-3.4101 3.1,0 5.93,0.3515 8.51,1.0742 2.55,0.7461 5.04,1.8672 7.45,3.4297 2.4,1.539 4.61,3.207 6.65,4.9883 2.02,1.7812 4.65,4.1914 7.88,7.2304 1.33,1.1289 3.23,1.711 5.7,1.711 2.66,0 4.81,-0.7422 6.46,-2.2032 1.64,-1.457 2.46,-3.5078 2.46,-6.1679 0,-2.3516 -0.91,-5.0703 -2.75,-8.211 -1.84,-3.1406 -4.61,-6.1484 -8.32,-9.0273 -3.7,-2.8828 -8.35,-5.2617 -13.95,-7.1719 -5.61,-1.9023 -12.05,-2.8515 -19.33,-2.8515 -16.65,0 -29.6,4.7617 -38.85,14.25 -9.24,9.4921 -13.87,22.3828 -13.87,38.6523 0,7.668 1.15,14.7769 3.42,21.3199 2.28,6.559 5.61,12.18 9.98,16.868 4.37,4.683 9.75,8.269 16.14,10.781 6.4,2.5 13.5,3.738 21.28,3.738 10.13,0 18.81,-2.117 26.06,-6.406 7.26,-4.274 12.69,-9.793 16.3,-16.563 3.61,-6.777 5.42,-13.687 5.42,-20.699 0,-6.5389 -1.87,-10.7616 -5.61,-12.6991 -3.73,-1.9218 -8.99,-2.9023 -15.77,-2.9023"
         style="fill:#4c4b4b;fill-opacity:1;fill-rule:nonzero;stroke:none"
         id="path26"
         inkscape:connector-curvature="0" /><path
         d="m 3104.47,91.3711 c 0,-7.0313 1.09,-13.0117 3.27,-17.9492 2.19,-4.9414 5.18,-8.6602 8.99,-11.1524 3.79,-2.5078 7.94,-3.7695 12.43,-3.7695 4.56,0 8.73,1.1914 12.49,3.582 3.77,2.3594 6.78,6.0078 9.02,10.8985 2.25,4.9179 3.38,11.0586 3.38,18.3906 0,6.9102 -1.13,12.8399 -3.38,17.8279 -2.24,4.961 -5.28,8.75 -9.11,11.391 -3.84,2.621 -8.03,3.93 -12.59,3.93 -4.74,0 -8.99,-1.352 -12.73,-4.04 -3.73,-2.679 -6.63,-6.539 -8.69,-11.578 -2.06,-5.043 -3.08,-10.8825 -3.08,-17.5309 z m 51,-38.082 0,2.5703 c -3.48,-3.9883 -6.92,-7.2383 -10.3,-9.7305 -3.39,-2.5078 -7.06,-4.418 -11.02,-5.6992 -3.95,-1.3203 -8.28,-1.9609 -12.96,-1.9609 -6.22,0 -11.96,1.3125 -17.24,3.9414 -5.29,2.6211 -9.86,6.3789 -13.73,11.2617 -3.86,4.8672 -6.79,10.5898 -8.78,17.1875 -2,6.5898 -2.99,13.7109 -2.99,21.3594 0,16.2112 3.95,28.8592 11.87,37.9102 7.91,9.051 18.33,13.582 31.25,13.582 7.47,0 13.77,-1.289 18.9,-3.84 5.13,-2.57 10.13,-6.519 15,-11.832 l 0,38.27 c 0,5.332 1.06,9.339 3.19,12.062 2.11,2.731 5.14,4.09 9.07,4.09 3.92,0 6.94,-1.25 9.07,-3.75 2.12,-2.512 3.18,-6.18 3.18,-11.07 l 0,-114.3519 c 0,-4.9375 -1.14,-8.6485 -3.42,-11.1172 -2.28,-2.461 -5.22,-3.7031 -8.83,-3.7031 -3.55,0 -6.48,1.2812 -8.79,3.8398 -2.31,2.582 -3.47,6.2305 -3.47,10.9805"
         style="fill:#4c4b4b;fill-opacity:1;fill-rule:nonzero;stroke:none"
         id="path28"
         inkscape:connector-curvature="0" /><path
         d="m 3262.68,90.6094 c 0,-10.3203 2.36,-18.2383 7.08,-23.7774 4.72,-5.5507 10.91,-8.332 18.57,-8.332 6.52,0 12.14,2.832 16.85,8.5117 4.72,5.668 7.08,13.7891 7.08,24.3594 0,6.8398 -0.97,12.7379 -2.94,17.6679 -1.97,4.941 -4.75,8.762 -8.35,11.441 -3.62,2.688 -7.83,4.04 -12.64,4.04 -4.94,0 -9.35,-1.352 -13.2,-4.04 -3.87,-2.679 -6.9,-6.578 -9.12,-11.679 -2.22,-5.082 -3.33,-11.1604 -3.33,-18.1916 z m -1.23,77.0316 0,-39.602 c 4.87,5.063 9.84,8.949 14.91,11.633 5.07,2.687 11.34,4.039 18.81,4.039 8.61,0 16.16,-2.039 22.66,-6.121 6.48,-4.098 11.51,-10.02 15.09,-17.77 3.58,-7.738 5.38,-16.949 5.38,-27.6012 0,-7.8477 -1.01,-15.0391 -3,-21.5977 -2,-6.5508 -4.9,-12.2422 -8.69,-17.043 -3.8,-4.8086 -8.41,-8.5468 -13.82,-11.1679 -5.42,-2.6289 -11.38,-3.9414 -17.9,-3.9414 -4,0 -7.75,0.4726 -11.26,1.4296 -3.52,0.9532 -6.51,2.1914 -8.98,3.75 -2.46,1.543 -4.57,3.1407 -6.31,4.793 -1.74,1.6406 -4.04,4.1172 -6.89,7.418 l 0,-2.5703 c 0,-4.8789 -1.17,-8.5703 -3.52,-11.0782 -2.33,-2.5 -5.31,-3.7421 -8.92,-3.7421 -3.67,0 -6.6,1.2421 -8.79,3.7421 -2.18,2.5079 -3.27,6.1993 -3.27,11.0782 l 0,113.2229 c 0,5.25 1.06,9.226 3.17,11.91 2.13,2.687 5.09,4.039 8.89,4.039 3.99,0 7.06,-1.281 9.21,-3.84 2.15,-2.582 3.23,-6.223 3.23,-10.98"
         style="fill:#4c4b4b;fill-opacity:1;fill-rule:nonzero;stroke:none"
         id="path30"
         inkscape:connector-curvature="0" /><path
         d="m 3371.91,35.2383 2.37,5.8008 -31.91,80.3519 c -1.96,4.609 -2.95,7.98 -2.95,10.07 0,2.219 0.57,4.269 1.71,6.16 1.14,1.91 2.71,3.43 4.7,4.559 2,1.16 4.07,1.722 6.22,1.722 3.74,0 6.55,-1.191 8.46,-3.562 1.91,-2.379 3.58,-5.77 5.03,-10.211 l 21.94,-63.8282 20.81,59.3672 c 1.64,4.793 3.13,8.574 4.46,11.301 1.33,2.722 2.73,4.562 4.22,5.5 1.49,0.953 3.6,1.433 6.32,1.433 1.97,0 3.85,-0.523 5.65,-1.574 1.81,-1.047 3.2,-2.449 4.18,-4.226 0.98,-1.77 1.48,-3.633 1.48,-5.59 -0.26,-1.211 -0.67,-2.91 -1.24,-5.141 -0.58,-2.211 -1.27,-4.473 -2.09,-6.742 l -33.81,-88.5196 c -2.92,-7.7891 -5.77,-13.8906 -8.55,-18.3281 -2.79,-4.42974 -6.47,-7.85161 -11.07,-10.21099 -4.59,-2.3789 -10.78,-3.5585912 -18.57,-3.5585912 -7.59,0 -13.29,0.8203122 -17.08,2.4570312 -3.82,1.66016 -5.71,4.66016 -5.71,9.03125 0,2.9688 0.9,5.2695 2.71,6.8789 1.8,1.6211 4.48,2.4414 8.02,2.4414 1.39,0 2.76,-0.1992 4.09,-0.5898 1.64,-0.3711 3.06,-0.5703 4.27,-0.5703 2.97,0 5.32,0.4414 7.03,1.3398 1.71,0.8789 3.24,2.4102 4.61,4.6094 1.35,2.1719 2.93,5.3906 4.7,9.6289"
         style="fill:#4c4b4b;fill-opacity:1;fill-rule:nonzero;stroke:none"
         id="path32"
         inkscape:connector-curvature="0" /><path
         d="m 3747.54,141.66 6.18,0 0,7.781 c 0,8.141 0.99,14.571 3.06,19.368 2.05,4.793 5.56,8.273 10.47,10.453 4.91,2.168 11.63,3.269 20.17,3.269 15.2,0 22.72,-3.679 22.72,-11.152 0,-2.379 -0.79,-4.438 -2.4,-6.149 -1.54,-1.691 -3.43,-2.558 -5.57,-2.558 -1,0 -2.79,0.187 -5.28,0.598 -2.37,0.332 -4.52,0.55 -6.23,0.55 -4.68,0 -7.66,-1.398 -9.05,-4.148 -1.27,-2.754 -1.95,-6.692 -1.95,-11.844 l 0,-6.168 6.32,0 c 9.92,0 14.82,-2.969 14.82,-8.961 0,-4.187 -1.27,-6.898 -3.93,-8.051 -2.61,-1.136 -6.24,-1.699 -10.89,-1.699 l -6.32,0 0,-68.7185 c 0,-5.1016 -1.21,-9 -3.7,-11.6797 -2.41,-2.7227 -5.53,-4.0586 -9.42,-4.0586 -3.67,0 -6.71,1.3359 -9.18,4.0586 -2.44,2.6797 -3.64,6.5781 -3.64,11.6797 l 0,68.7185 -7.14,0 c -3.89,0 -6.83,0.832 -8.94,2.61 -2.09,1.711 -3.14,4 -3.14,6.781 0,6.238 4.35,9.32 13.04,9.32"
         style="fill:#4c4b4b;fill-opacity:1;fill-rule:nonzero;stroke:none"
         id="path34"
         inkscape:connector-curvature="0" /><path
         d="m 3832.43,75.9102 0,-21.6797 c 0,-5.2305 -1.33,-9.1914 -3.74,-11.7891 -2.47,-2.6601 -5.59,-3.9492 -9.38,-3.9492 -3.81,0 -6.87,1.3086 -9.26,4.0078 -2.37,2.6289 -3.61,6.5586 -3.61,11.7305 l 0,72.2305 c 0,11.66 4.2,17.488 12.61,17.488 4.34,0 7.43,-1.347 9.34,-4.078 1.89,-2.742 2.95,-6.742 3.17,-12.082 3.08,5.34 6.24,9.34 9.48,12.082 3.32,2.731 7.63,4.078 13.1,4.078 5.49,0 10.72,-1.347 15.85,-4.078 5.15,-2.742 7.71,-6.371 7.71,-10.851 0,-3.149 -1.1,-5.801 -3.26,-7.809 -2.2,-2.09 -4.54,-3.121 -7.06,-3.121 -1,0 -3.31,0.629 -6.92,1.801 -3.66,1.129 -6.89,1.73 -9.63,1.73 -3.8,0 -6.93,-1.031 -9.32,-2.98 -2.42,-2.051 -4.31,-4.969 -5.64,-8.871 -1.29,-3.938 -2.19,-8.649 -2.73,-14.0395 -0.49,-5.4219 -0.71,-12.0313 -0.71,-19.8203"
         style="fill:#4c4b4b;fill-opacity:1;fill-rule:nonzero;stroke:none"
         id="path36"
         inkscape:connector-curvature="0" /><path
         d="m 3900.9,99.5898 47.01,0 c -0.63,8.8402 -2.98,15.4922 -7.14,19.8592 -4.18,4.422 -9.59,6.602 -16.41,6.602 -6.45,0 -11.76,-2.199 -15.91,-6.692 -4.15,-4.461 -6.68,-11.039 -7.55,-19.7692 m 50.74,-14.75 -50.74,0 c 0.08,-5.8789 1.24,-11.1015 3.54,-15.5898 2.35,-4.4609 5.4,-7.8594 9.25,-10.1602 3.85,-2.2812 8.04,-3.3984 12.68,-3.3984 3.11,0 5.93,0.3281 8.5,1.1094 2.54,0.6992 5.05,1.8594 7.45,3.4101 2.42,1.5196 4.6,3.1797 6.64,5 2.02,1.75 4.67,4.1602 7.9,7.1875 1.35,1.1329 3.25,1.7422 5.69,1.7422 2.68,0 4.81,-0.75 6.49,-2.2226 1.66,-1.4688 2.43,-3.5078 2.43,-6.168 0,-2.3594 -0.89,-5.082 -2.67,-8.1992 -1.88,-3.1719 -4.63,-6.1602 -8.36,-9.0586 -3.74,-2.8516 -8.39,-5.2734 -13.98,-7.1406 -5.59,-1.9024 -12.06,-2.8594 -19.31,-2.8594 -16.71,0 -29.64,4.7266 -38.87,14.2187 -9.24,9.5196 -13.92,22.418 -13.92,38.6797 0,7.668 1.17,14.7894 3.48,21.3474 2.25,6.582 5.58,12.16 9.99,16.871 4.36,4.711 9.7,8.289 16.12,10.789 6.38,2.493 13.47,3.743 21.28,3.743 10.11,0 18.81,-2.141 26.07,-6.461 7.23,-4.231 12.73,-9.758 16.29,-16.539 3.61,-6.809 5.42,-13.68 5.42,-20.743 0,-6.4878 -1.89,-10.7066 -5.62,-12.6597 -3.73,-1.9297 -8.97,-2.8985 -15.75,-2.8985"
         style="fill:#4c4b4b;fill-opacity:1;fill-rule:nonzero;stroke:none"
         id="path38"
         inkscape:connector-curvature="0" /><path
         d="m 4008.78,99.5898 47.01,0 c -0.64,8.8402 -3.04,15.4922 -7.15,19.8592 -4.21,4.422 -9.62,6.602 -16.43,6.602 -6.45,0 -11.75,-2.199 -15.92,-6.692 -4.13,-4.461 -6.67,-11.039 -7.51,-19.7692 m 50.73,-14.75 -50.73,0 c 0.06,-5.8789 1.25,-11.1015 3.54,-15.5898 2.32,-4.4609 5.39,-7.8594 9.21,-10.1602 3.83,-2.2812 8.06,-3.3984 12.72,-3.3984 3.07,0 5.92,0.3281 8.44,1.1094 2.59,0.6992 5.06,1.8594 7.5,3.4101 2.43,1.5196 4.6,3.1797 6.64,5 2,1.75 4.64,4.1602 7.88,7.1875 1.35,1.1329 3.27,1.7422 5.69,1.7422 2.68,0 4.83,-0.75 6.5,-2.2226 1.65,-1.4688 2.4,-3.5078 2.4,-6.168 0,-2.3594 -0.86,-5.082 -2.73,-8.1992 -1.77,-3.1719 -4.55,-6.1602 -8.3,-9.0586 -3.7,-2.8516 -8.4,-5.2734 -13.96,-7.1406 -5.57,-1.9024 -12.08,-2.8594 -19.34,-2.8594 -16.67,0 -29.59,4.7266 -38.87,14.2187 -9.24,9.5196 -13.89,22.418 -13.89,38.6797 0,7.668 1.17,14.7894 3.48,21.3474 2.27,6.582 5.59,12.16 9.96,16.871 4.36,4.711 9.73,8.289 16.14,10.789 6.38,2.493 13.51,3.743 21.29,3.743 10.09,0 18.78,-2.141 26.14,-6.461 7.19,-4.231 12.65,-9.758 16.21,-16.539 3.59,-6.809 5.45,-13.68 5.45,-20.743 0,-6.4878 -1.92,-10.7066 -5.62,-12.6597 -3.75,-1.9297 -8.99,-2.8985 -15.75,-2.8985"
         style="fill:#4c4b4b;fill-opacity:1;fill-rule:nonzero;stroke:none"
         id="path40"
         inkscape:connector-curvature="0" /><path
         d="m 4167.15,91.6914 c 0,6.8399 -1.07,12.7266 -3.15,17.6176 -2.09,4.921 -4.99,8.671 -8.66,11.281 -3.67,2.629 -7.82,3.969 -12.32,3.969 -7.14,0 -13.19,-2.848 -18.09,-8.438 -4.92,-5.672 -7.39,-13.961 -7.39,-24.9296 0,-10.2695 2.44,-18.332 7.35,-24.0703 4.87,-5.7305 10.86,-8.582 18.13,-8.582 4.28,0 8.3,1.2617 11.97,3.7226 3.71,2.5274 6.65,6.2696 8.84,11.2696 2.2,5.0195 3.32,11.0781 3.32,18.1601 m -50.84,37.6676 0,-3.097 c 4.86,6 9.94,10.418 15.24,13.238 5.19,2.84 11.18,4.27 17.82,4.27 7.95,0 15.35,-2.079 22.07,-6.18 6.71,-4.141 11.99,-10.149 15.89,-18.059 3.9,-7.953 5.86,-17.301 5.86,-28.1404 0,-7.9609 -1.12,-15.3125 -3.36,-22.0117 -2.23,-6.6797 -5.37,-12.2695 -9.29,-16.7969 -3.93,-4.5 -8.55,-8.0117 -13.89,-10.4609 -5.42,-2.4102 -11.12,-3.6289 -17.28,-3.6289 -7.38,0 -13.64,1.4883 -18.65,4.4687 -5.03,2.918 -9.82,7.3399 -14.41,13.0586 l 0,-38.9179 C 4116.31,5.73828 4112.15,0 4103.87,0 c -4.91,0 -8.09,1.46094 -9.72,4.39063 -1.52,2.98828 -2.34,7.23827 -2.34,12.91017 l 0,111.9292 c 0,4.961 1.07,8.598 3.21,11.079 2.15,2.39 5.11,3.64 8.85,3.64 3.69,0 6.66,-1.25 8.95,-3.738 2.35,-2.539 3.49,-6.102 3.49,-10.852"
         style="fill:#4c4b4b;fill-opacity:1;fill-rule:nonzero;stroke:none"
         id="path42"
         inkscape:connector-curvature="0" /><path
         d="m 4232.15,129.23 0,-75.0191 c 0,-5.1523 -1.24,-9.082 -3.7,-11.7109 -2.5,-2.6992 -5.61,-4.0078 -9.42,-4.0078 -3.81,0 -6.84,1.3359 -9.28,4.0586 -2.33,2.7695 -3.55,6.6484 -3.55,11.6601 l 0,74.2811 c 0,5.098 1.22,8.949 3.55,11.539 2.44,2.649 5.47,3.918 9.28,3.918 3.81,0 6.92,-1.269 9.42,-3.918 2.46,-2.59 3.7,-6.222 3.7,-10.801 m -12.85,26.79 c -3.62,0 -6.68,1.14 -9.22,3.351 -2.6,2.231 -3.88,5.32 -3.88,9.367 0,3.684 1.31,6.703 3.96,9.102 2.62,2.34 5.67,3.551 9.14,3.551 3.4,0 6.36,-1.063 8.94,-3.192 2.6,-2.187 3.91,-5.34 3.91,-9.461 0,-3.996 -1.27,-7.109 -3.78,-9.359 -2.54,-2.219 -5.55,-3.359 -9.07,-3.359"
         style="fill:#4c4b4b;fill-opacity:1;fill-rule:nonzero;stroke:none"
         id="path44"
         inkscape:connector-curvature="0" /><path
         d="m 4315.74,50.3281 -22.84,37.6524 -14.08,-13.2813 0,-20.6484 c 0,-4.9922 -1.33,-8.8203 -3.97,-11.5 -2.57,-2.7227 -5.66,-4.0586 -9.06,-4.0586 -3.99,0 -7.15,1.3086 -9.41,4.0078 -2.26,2.6289 -3.43,6.5586 -3.43,11.7305 l 0,110.6405 c 0,5.731 1.14,10.109 3.31,13.129 2.22,3.051 5.45,4.531 9.53,4.531 3.99,0 7.13,-1.371 9.49,-4.121 2.34,-2.699 3.54,-6.73 3.54,-12.019 l 0,-62.93 29.16,30.629 c 3.62,3.762 6.32,6.402 8.27,7.781 1.89,1.391 4.19,2.078 6.89,2.078 3.26,0 5.94,-1.027 8.16,-3.09 2.11,-2.058 3.2,-4.648 3.2,-7.73 0,-3.789 -3.54,-8.887 -10.55,-15.207 l -13.77,-12.633 26.6,-41.8281 c 1.93,-3.1328 3.38,-5.4414 4.23,-7.0586 0.84,-1.5937 1.3,-3.1914 1.3,-4.621 0,-4.129 -1.14,-7.3399 -3.41,-9.75 -2.24,-2.3711 -5.23,-3.5391 -8.85,-3.5391 -3.17,0 -5.64,0.8086 -7.34,2.5586 -1.7,1.7305 -4.07,4.8281 -6.97,9.2773"
         style="fill:#4c4b4b;fill-opacity:1;fill-rule:nonzero;stroke:none"
         id="path46"
         inkscape:connector-curvature="0" /><path
         d="m 4372.1,38.4922 c -3.92,0 -7.28,1.2578 -10.14,3.8086 -2.84,2.4883 -4.29,6.0586 -4.29,10.6484 0,3.8516 1.38,7.1797 4.11,9.9492 2.74,2.793 6.07,4.1914 10.07,4.1914 3.98,0 7.36,-1.3984 10.23,-4.1289 2.79,-2.75 4.22,-6.1211 4.22,-10.0117 0,-4.5273 -1.43,-8.0781 -4.22,-10.5976 -2.87,-2.6016 -6.19,-3.8594 -9.98,-3.8594"
         style="fill:#4c4b4b;fill-opacity:1;fill-rule:nonzero;stroke:none"
         id="path48"
         inkscape:connector-curvature="0" /><path
         d="m 4501.08,70.5898 c 0,-3.1992 -0.96,-6.6796 -2.91,-10.3398 -1.91,-3.6992 -4.88,-7.1797 -8.86,-10.5 -3.94,-3.3203 -8.91,-6.0195 -14.95,-8.0391 -6,-2.0195 -12.8,-3.0625 -20.3,-3.0625 -16.06,0 -28.58,4.7032 -37.58,14.0118 -8.95,9.3593 -13.45,21.8984 -13.45,37.6015 0,10.6683 2.04,20.0583 6.19,28.2383 4.07,8.148 10.04,14.469 17.81,18.941 7.79,4.477 17.16,6.7 27.94,6.7 6.74,0 12.88,-0.981 18.52,-2.95 5.61,-1.961 10.33,-4.511 14.25,-7.589 3.87,-3.153 6.86,-6.442 8.9,-9.922 2.07,-3.52 3.07,-6.809 3.07,-9.879 0,-3.071 -1.13,-5.711 -3.42,-7.871 -2.36,-2.149 -5.16,-3.239 -8.39,-3.239 -2.19,0 -3.98,0.571 -5.41,1.661 -1.44,1.117 -3.05,2.898 -4.79,5.418 -3.17,4.789 -6.46,8.421 -9.96,10.789 -3.43,2.433 -7.8,3.632 -13.13,3.632 -7.62,0 -13.84,-2.98 -18.54,-8.98 -4.68,-5.961 -7.03,-14.199 -7.03,-24.543 0,-4.8789 0.63,-9.3867 1.83,-13.4766 1.17,-4.0703 2.91,-7.5625 5.2,-10.4414 2.31,-2.8711 5.04,-5.0508 8.26,-6.5391 3.25,-1.5312 6.81,-2.2617 10.64,-2.2617 5.21,0 9.67,1.211 13.37,3.6094 3.76,2.4102 7.02,6.0703 9.86,11.0234 1.58,2.9102 3.27,5.1797 5.09,6.836 1.83,1.6328 4.09,2.4922 6.76,2.4922 3.16,0 5.8,-1.2305 7.86,-3.6211 2.11,-2.4102 3.17,-4.9883 3.17,-7.6993"
         style="fill:#4c4b4b;fill-opacity:1;fill-rule:nonzero;stroke:none"
         id="path50"
         inkscape:connector-curvature="0" /><path
         d="m 4586.95,91.1992 c 0,10.5818 -2.34,18.8128 -6.98,24.6798 -4.63,5.961 -10.9,8.883 -18.74,8.883 -5.08,0 -9.55,-1.321 -13.43,-3.93 -3.87,-2.621 -6.81,-6.5 -8.9,-11.641 -2.09,-5.14 -3.15,-11.1402 -3.15,-17.9918 0,-6.789 1.03,-12.6797 3.1,-17.7383 2.08,-5.1015 5.02,-8.9726 8.85,-11.6601 3.86,-2.6602 8.35,-4.0391 13.53,-4.0391 7.84,0 14.11,2.9571 18.74,8.918 4.64,5.9023 6.98,14.1094 6.98,24.5195 m 26.04,0 c 0,-7.6992 -1.22,-14.8476 -3.56,-21.3906 -2.47,-6.5195 -5.92,-12.1289 -10.5,-16.7891 -4.55,-4.6797 -10.02,-8.2773 -16.31,-10.8007 -6.4,-2.4688 -13.5,-3.75 -21.39,-3.75 -7.85,0 -14.93,1.2812 -21.21,3.832 -6.23,2.4883 -11.71,6.1406 -16.26,10.8203 -4.61,4.7695 -8.09,10.3398 -10.52,16.7695 -2.29,6.4297 -3.51,13.5391 -3.51,21.3086 0,7.8594 1.24,15.0628 3.59,21.5818 2.42,6.539 5.89,12.117 10.39,16.731 4.51,4.617 9.93,8.168 16.31,10.699 6.43,2.488 13.49,3.738 21.21,3.738 7.84,0 14.98,-1.25 21.39,-3.82 6.37,-2.508 11.82,-6.141 16.43,-10.789 4.58,-4.738 8.03,-10.289 10.4,-16.719 2.33,-6.512 3.54,-13.6015 3.54,-21.4218"
         style="fill:#4c4b4b;fill-opacity:1;fill-rule:nonzero;stroke:none"
         id="path52"
         inkscape:connector-curvature="0" /><path
         d="m 4711.9,89.2891 0,-34.461 c 0,-5.4687 -1.2,-9.5078 -3.69,-12.2773 -2.5,-2.7227 -5.71,-4.082 -9.77,-4.082 -3.93,0 -7.14,1.3593 -9.52,4.082 -2.47,2.7695 -3.72,6.8086 -3.72,12.2773 l 0,41.3125 c 0,6.5314 -0.2,11.6214 -0.63,15.2384 -0.46,3.543 -1.68,6.562 -3.62,8.832 -1.97,2.348 -5.09,3.519 -9.31,3.519 -8.51,0 -14.07,-2.898 -16.77,-8.808 -2.67,-5.762 -4.06,-14.133 -4.06,-25.0704 l 0,-35.0235 c 0,-5.3789 -1.22,-9.457 -3.61,-12.2383 -2.5,-2.7304 -5.68,-4.121 -9.65,-4.121 -3.96,0 -7.17,1.3906 -9.67,4.121 -2.52,2.7813 -3.76,6.8594 -3.76,12.2383 l 0,74.1919 c 0,4.89 1.11,8.601 3.35,11.109 2.29,2.57 5.26,3.82 8.9,3.82 3.56,0 6.51,-1.23 8.91,-3.551 2.36,-2.386 3.55,-5.668 3.55,-9.847 l 0,-2.449 c 4.53,5.347 9.34,9.32 14.44,11.808 5.17,2.602 10.82,3.86 17.13,3.86 6.51,0 12.11,-1.309 16.78,-3.899 4.69,-2.609 8.53,-6.551 11.6,-11.769 4.39,5.277 9.09,9.226 14.1,11.808 5,2.57 10.53,3.86 16.62,3.86 7.06,0 13.21,-1.43 18.34,-4.188 5.1,-2.793 8.93,-6.801 11.47,-11.961 2.21,-4.723 3.31,-12.101 3.31,-22.172 l 0,-50.6209 c 0,-5.4687 -1.23,-9.5078 -3.68,-12.2773 -2.46,-2.7227 -5.75,-4.082 -9.79,-4.082 -3.95,0 -7.14,1.3906 -9.65,4.121 -2.5,2.7813 -3.76,6.8594 -3.76,12.2383 l 0,43.6133 c 0,5.5896 -0.23,10.0276 -0.69,13.3786 -0.47,3.371 -1.77,6.2 -3.83,8.469 -2.12,2.27 -5.3,3.441 -9.53,3.441 -3.42,0 -6.66,-1.07 -9.74,-3.082 -3.07,-1.976 -5.47,-4.769 -7.21,-8.117 -1.85,-4.39 -2.84,-12.133 -2.84,-23.2419"
         style="fill:#4c4b4b;fill-opacity:1;fill-rule:nonzero;stroke:none"
         id="path54"
         inkscape:connector-curvature="0" /><path
         d="m 3504.86,97.4805 c -0.02,0.0508 -0.02,0.0898 -0.02,0.1718 0,-0.082 0,-0.121 0.02,-0.1718"
         style="fill:#4c4b4b;fill-opacity:1;fill-rule:nonzero;stroke:none"
         id="path56"
         inkscape:connector-curvature="0" /><path
         d="m 3506.16,89.1914 c 0.02,0 0.02,0 0.03,0 -0.49,2.3594 -0.88,4.6992 -1.18,7.0195 0.3,-2.3398 0.69,-4.6914 1.15,-7.0195"
         style="fill:#4c4b4b;fill-opacity:1;fill-rule:nonzero;stroke:none"
         id="path58"
         inkscape:connector-curvature="0" /><path
         d="m 3514.75,65.1211 c -0.06,0.0977 -0.11,0.2187 -0.17,0.3281 0.06,-0.1094 0.11,-0.2304 0.17,-0.3281"
         style="fill:#4c4b4b;fill-opacity:1;fill-rule:nonzero;stroke:none"
         id="path60"
         inkscape:connector-curvature="0" /><path
         d="m 3513.93,66.7188 c -0.23,0.4414 -0.44,0.9023 -0.66,1.3398 0.22,-0.4688 0.43,-0.8984 0.66,-1.3398"
         style="fill:#4c4b4b;fill-opacity:1;fill-rule:nonzero;stroke:none"
         id="path62"
         inkscape:connector-curvature="0" /><path
         d="m 3508.58,79.9219 c 1.27,-4.0117 2.79,-7.8828 4.57,-11.5821 -1.8,3.7696 -3.3,7.6602 -4.54,11.5821 -0.01,0 -0.02,0 -0.03,0"
         style="fill:#4c4b4b;fill-opacity:1;fill-rule:nonzero;stroke:none"
         id="path64"
         inkscape:connector-curvature="0" /><path
         d="m 3605.23,196.84 c 5.01,0 8.71,-0.399 12.95,-1.11 l 1.2,7.629 c 0,0 -11.71,3.602 -27.1,2.34 l -1.21,4.153 c 4.78,1.007 8.38,5.257 8.38,10.339 0,5.821 -4.75,10.539 -10.58,10.539 -5.83,0 -10.55,-4.718 -10.55,-10.539 0,-5.082 3.58,-9.332 8.36,-10.339 l 1.34,-4.633 c -16.35,-2.25 -29.36,-8.617 -29.36,-8.617 l 2.31,-7.051 c 9.89,3.289 18.46,5.289 26.24,6.129 7.62,0.808 13.35,1.16 18.02,1.16"
         style="fill:#4c4b4b;fill-opacity:1;fill-rule:nonzero;stroke:none"
         id="path66"
         inkscape:connector-curvature="0" /><path
         d="m 3514.55,158.262 0.06,0.078 c 0.39,0.492 0.76,0.961 1.13,1.422 l -3.12,2.258 -4.88,3.562 c -0.28,-0.383 -7.95,-7.441 -14.02,-20.48 -0.25,0.41 -0.55,0.808 -0.89,1.187 -1.82,1.992 -4.36,3 -7.59,2.941 -0.04,0 -0.09,0 -0.14,0 -2,0 -3.37,0.668 -4.27,1.481 0.89,1.129 1.43,2.559 1.43,4.129 0,3.68 -3,6.691 -6.7,6.691 -3.68,0 -6.68,-3.011 -6.68,-6.691 0,-3.699 3,-6.692 6.68,-6.692 0.59,0 1.14,0.102 1.67,0.211 1.65,-1.828 4.26,-3.418 8.08,-3.339 1.97,0.011 3.41,-0.489 4.38,-1.559 1.1,-1.211 1.48,-2.961 1.59,-4.27 -0.01,-0.019 -0.01,-0.05 -0.03,-0.05 -4.35,-11.899 -3.11,-26.7 -3.11,-26.7 l 10.57,-0.421 c 0.22,5.39 0.99,14.82 3.72,22.3 5.26,14.489 11.85,23.559 12.12,23.942"
         style="fill:#4c4b4b;fill-opacity:1;fill-rule:nonzero;stroke:none"
         id="path68"
         inkscape:connector-curvature="0" /><path
         d="m 3697.22,188 c -3.68,0 -6.69,-2.98 -6.69,-6.691 0,-0.571 0.09,-1.118 0.24,-1.649 -1.84,-1.66 -3.43,-4.269 -3.37,-8.101 0.03,-1.969 -0.48,-3.399 -1.54,-4.368 -0.85,-0.75 -1.92,-1.152 -2.96,-1.402 -7.87,11.02 -17.56,17.75 -17.56,17.75 l -7.59,-8.129 c 5.73,-5.219 11.59,-11.75 17.29,-19.91 3.93,-5.629 7.99,-12.898 11.35,-20.141 l 10.25,4.86 c 0,0 -4.68,11.551 -11.26,21.91 1.14,0.402 2.29,1.031 3.31,1.93 2,1.8 2.99,4.363 2.93,7.582 -0.02,2.078 0.66,3.48 1.48,4.41 1.15,-0.871 2.57,-1.43 4.12,-1.43 3.72,0 6.7,3 6.7,6.688 0,3.711 -2.98,6.691 -6.7,6.691"
         style="fill:#4c4b4b;fill-opacity:1;fill-rule:nonzero;stroke:none"
         id="path70"
         inkscape:connector-curvature="0" /><path
         d="m 3670.65,95.9805 c -14.09,-6.8594 -37.28,-15.9414 -67.81,-20.1914 -11.98,-1.6602 -23.59,-2.2774 -34.28,-2.2774 -13.91,0 -26.2,1.0391 -35.63,2.2266 -10.76,1.3633 -19.17,3.0234 -24.32,4.1836 1.24,-3.9219 2.74,-7.8125 4.54,-11.5821 0.03,-0.1015 0.08,-0.2109 0.12,-0.2812 0.22,-0.4375 0.43,-0.8984 0.66,-1.3398 0.21,-0.4375 0.43,-0.8594 0.65,-1.2696 0.06,-0.1094 0.11,-0.2304 0.17,-0.3281 3.03,-5.7031 6.66,-10.9414 10.8,-15.4922 14.4,-15.75 29.08,-18.2383 29.21,-18.2578 l 0.23,-0.0313 0.22,-0.0703 c 0.13,-0.0507 13.14,-4.25 32.91,-4.25 19.46,0 38.55,3.9219 56.74,11.6719 13.48,6.8906 26.22,17.3594 32.54,26.6992 4.88,7.2188 8.41,14.9297 10.5,22.9414 1.11,4.25 1.99,11.0664 1.47,18.246 -3.96,-2.668 -10.23,-6.469 -18.72,-10.5975"
         style="fill:#4c4b4b;fill-opacity:1;fill-rule:nonzero;stroke:none"
         id="path72"
         inkscape:connector-curvature="0" /><path
         d="m 3559.36,162.281 c 15.56,0 28.17,-12.621 28.17,-28.172 0,-15.558 -12.61,-28.148 -28.17,-28.148 -15.55,0 -28.16,12.59 -28.16,28.148 0,15.551 12.61,28.172 28.16,28.172 z m 82.42,-0.691 c 9.6,0 17.43,-7.809 17.43,-17.43 0,-9.621 -7.83,-17.449 -17.43,-17.449 -9.62,0 -17.43,7.828 -17.43,17.449 0,9.621 7.81,17.43 17.43,17.43 z m -122.7,-6.668 c -0.41,-0.602 -6.52,-9.254 -11.35,-22.531 -3.62,-9.95 -3.46,-24.442 -3.46,-24.602 l 0,-0.027 c 0,-3.403 0.19,-6.77 0.57,-10.1097 0,-0.082 0,-0.121 0.02,-0.1718 0.04,-0.4297 0.11,-0.8399 0.15,-1.2696 0.3,-2.3203 0.69,-4.6601 1.18,-7.0195 7.01,-1.7812 48.79,-11.5312 95.49,-5.0195 29.27,4.0664 51.49,12.7187 64.99,19.2581 11.21,5.441 18.42,10.359 21.2,12.39 -2.77,10.282 -10.42,26.399 -17.43,36.461 -20.05,28.649 -41.67,36.008 -52.78,37.828 -4.23,0.7 -7.62,1.102 -12.43,1.102 -4.47,0 -10.02,-0.359 -17.43,-1.152 -7.43,-0.77 -15.72,-2.719 -25.32,-5.95 -13.48,-4.507 -25.68,-11.589 -35.27,-20.48 l -0.33,-0.297 c -1.42,-1.312 -4.39,-4.07 -7.8,-8.41"
         style="fill:#4c4b4b;fill-opacity:1;fill-rule:nonzero;stroke:none"
         id="path74"
         inkscape:connector-curvature="0" /><path
         d="m 1382.55,6761.21 c 0,372.11 -301.66,673.77 -673.777,673.77 C 336.66,7434.98 35,7133.32 35,6761.21 c 0,-372.12 301.66,-673.78 673.773,-673.78 372.117,0 673.777,301.66 673.777,673.78 z"
         style="fill:none;stroke:#000000;stroke-width:70;stroke-linecap:butt;stroke-linejoin:miter;stroke-miterlimit:10;stroke-dasharray:none;stroke-opacity:1"
         id="path76"
         inkscape:connector-curvature="0" /><path
         d="m 866.727,6761.3 c 0,87.28 -70.758,158.04 -158.043,158.04 -87.286,0 -158.047,-70.76 -158.047,-158.04 0,-87.29 70.761,-158.05 158.047,-158.05 87.285,0 158.043,70.76 158.043,158.05 z"
         style="fill:none;stroke:#000000;stroke-width:20;stroke-linecap:butt;stroke-linejoin:miter;stroke-miterlimit:10;stroke-dasharray:none;stroke-opacity:1"
         id="path78"
         inkscape:connector-curvature="0" /><path
         d="m 738.219,6761.3 c 0,16.31 -13.227,29.53 -29.535,29.53 -16.313,0 -29.536,-13.22 -29.536,-29.53 0,-16.32 13.223,-29.54 29.536,-29.54 16.308,0 29.535,13.22 29.535,29.54"
         style="fill:#e30613;fill-opacity:1;fill-rule:nonzero;stroke:none"
         id="path80"
         inkscape:connector-curvature="0" /><path
         d="m 706.656,6922.38 0,57.49"
         style="fill:none;stroke:#000000;stroke-width:20;stroke-linecap:butt;stroke-linejoin:miter;stroke-miterlimit:10;stroke-dasharray:none;stroke-opacity:1"
         id="path82"
         inkscape:connector-curvature="0" /><path
         d="m 706.656,6541.71 0,57.49"
         style="fill:none;stroke:#000000;stroke-width:20;stroke-linecap:butt;stroke-linejoin:miter;stroke-miterlimit:10;stroke-dasharray:none;stroke-opacity:1"
         id="path84"
         inkscape:connector-curvature="0" /><path
         d="m 874.324,6755.22 57.489,0"
         style="fill:none;stroke:#000000;stroke-width:20;stroke-linecap:butt;stroke-linejoin:miter;stroke-miterlimit:10;stroke-dasharray:none;stroke-opacity:1"
         id="path86"
         inkscape:connector-curvature="0" /><path
         d="m 486.566,6755.22 57.489,0"
         style="fill:none;stroke:#000000;stroke-width:20;stroke-linecap:butt;stroke-linejoin:miter;stroke-miterlimit:10;stroke-dasharray:none;stroke-opacity:1"
         id="path88"
         inkscape:connector-curvature="0" /><path
         d="m 7032.24,6761.21 c 0,372.11 -301.66,673.77 -673.78,673.77 -372.11,0 -673.77,-301.66 -673.77,-673.77 0,-372.12 301.66,-673.78 673.77,-673.78 372.12,0 673.78,301.66 673.78,673.78 z"
         style="fill:none;stroke:#000000;stroke-width:70;stroke-linecap:butt;stroke-linejoin:miter;stroke-miterlimit:10;stroke-dasharray:none;stroke-opacity:1"
         id="path90"
         inkscape:connector-curvature="0" /><path
         d="m 6537.91,6761.21 c 0,99.1 -80.34,179.44 -179.45,179.44 -99.1,0 -179.44,-80.34 -179.44,-179.44 0,-99.11 80.34,-179.45 179.44,-179.45 99.11,0 179.45,80.34 179.45,179.45 z"
         style="fill:none;stroke:#000000;stroke-width:20;stroke-linecap:butt;stroke-linejoin:miter;stroke-miterlimit:10;stroke-dasharray:none;stroke-opacity:1"
         id="path92"
         inkscape:connector-curvature="0" /><path
         d="m 6396.57,6761.21 c 0,21.04 -17.06,38.1 -38.11,38.1 -21.04,0 -38.1,-17.06 -38.1,-38.1 0,-21.05 17.06,-38.11 38.1,-38.11 21.05,0 38.11,17.06 38.11,38.11"
         style="fill:#e30613;fill-opacity:1;fill-rule:nonzero;stroke:none"
         id="path94"
         inkscape:connector-curvature="0" /><path
         d="m 7032.21,3063.66 c -3.37,371.26 -307.75,669.49 -679.85,666.11 -372.1,-3.37 -671.01,-307.08 -667.64,-678.34 3.37,-371.27 307.75,-669.5 679.84,-666.12 372.11,3.38 671.02,307.09 667.65,678.35 z"
         style="fill:none;stroke:#000000;stroke-width:70;stroke-linecap:butt;stroke-linejoin:miter;stroke-miterlimit:10;stroke-dasharray:none;stroke-opacity:1"
         id="path96"
         inkscape:connector-curvature="0" /><path
         d="m 6750.17,3061.1 c -1.95,215.85 -178.92,389.24 -395.26,387.27 -216.33,-1.96 -390.12,-178.53 -388.16,-394.38 1.96,-215.85 178.92,-389.24 395.26,-387.28 216.34,1.97 390.12,178.54 388.16,394.39 z"
         style="fill:none;stroke:#000000;stroke-width:20;stroke-linecap:butt;stroke-linejoin:miter;stroke-miterlimit:10;stroke-dasharray:none;stroke-opacity:1"
         id="path98"
         inkscape:connector-curvature="0" /><path
         d="m 6392.33,3063.01 168.12,1.53"
         style="fill:none;stroke:#e30613;stroke-width:25;stroke-linecap:butt;stroke-linejoin:miter;stroke-miterlimit:10;stroke-dasharray:none;stroke-opacity:1"
         id="path100"
         inkscape:connector-curvature="0" /><path
         d="m 6366.62,3028.83 1.53,-167.74"
         style="fill:none;stroke:#e30613;stroke-width:25;stroke-linecap:butt;stroke-linejoin:miter;stroke-miterlimit:10;stroke-dasharray:none;stroke-opacity:1"
         id="path102"
         inkscape:connector-curvature="0" /><path
         d="m 6168.18,3060.98 168.11,1.53"
         style="fill:none;stroke:#e30613;stroke-width:25;stroke-linecap:butt;stroke-linejoin:miter;stroke-miterlimit:10;stroke-dasharray:none;stroke-opacity:1"
         id="path104"
         inkscape:connector-curvature="0" /><path
         d="m 3265.78,6761.21 c 0,372.11 -301.66,673.77 -673.78,673.77 -372.11,0 -673.77,-301.66 -673.77,-673.77 0,-372.12 301.66,-673.78 673.77,-673.78 372.12,0 673.78,301.66 673.78,673.78 z"
         style="fill:none;stroke:#000000;stroke-width:70;stroke-linecap:butt;stroke-linejoin:miter;stroke-miterlimit:10;stroke-dasharray:none;stroke-opacity:1"
         id="path106"
         inkscape:connector-curvature="0" /><path
         d="m 1913.01,6768.18 241.39,0"
         style="fill:none;stroke:#000000;stroke-width:20;stroke-linecap:butt;stroke-linejoin:miter;stroke-miterlimit:10;stroke-dasharray:none;stroke-opacity:1"
         id="path108"
         inkscape:connector-curvature="0" /><path
         d="m 3023.06,6766.07 253.66,0"
         style="fill:none;stroke:#000000;stroke-width:20;stroke-linecap:butt;stroke-linejoin:miter;stroke-miterlimit:10;stroke-dasharray:none;stroke-opacity:1"
         id="path110"
         inkscape:connector-curvature="0" /><path
         d="m 2683.58,6763.83 125.26,0"
         style="fill:none;stroke:#000000;stroke-width:20;stroke-linecap:butt;stroke-linejoin:miter;stroke-miterlimit:10;stroke-dasharray:none;stroke-opacity:1"
         id="path112"
         inkscape:connector-curvature="0" /><path
         d="m 2383.41,6766.19 125.27,0"
         style="fill:none;stroke:#000000;stroke-width:20;stroke-linecap:butt;stroke-linejoin:miter;stroke-miterlimit:10;stroke-dasharray:none;stroke-opacity:1"
         id="path114"
         inkscape:connector-curvature="0" /><path
         d="m 2597.31,6852.46 0,125.27"
         style="fill:none;stroke:#000000;stroke-width:20;stroke-linecap:butt;stroke-linejoin:miter;stroke-miterlimit:10;stroke-dasharray:none;stroke-opacity:1"
         id="path116"
         inkscape:connector-curvature="0" /><path
         d="m 2594.95,6552.3 0,125.26"
         style="fill:none;stroke:#000000;stroke-width:20;stroke-linecap:butt;stroke-linejoin:miter;stroke-miterlimit:10;stroke-dasharray:none;stroke-opacity:1"
         id="path118"
         inkscape:connector-curvature="0" /><path
         d="m 2276.57,6802 0,-73.98"
         style="fill:none;stroke:#000000;stroke-width:20;stroke-linecap:butt;stroke-linejoin:miter;stroke-miterlimit:10;stroke-dasharray:none;stroke-opacity:1"
         id="path120"
         inkscape:connector-curvature="0" /><path
         d="m 2911.51,6802 0,-73.98"
         style="fill:none;stroke:#000000;stroke-width:20;stroke-linecap:butt;stroke-linejoin:miter;stroke-miterlimit:10;stroke-dasharray:none;stroke-opacity:1"
         id="path122"
         inkscape:connector-curvature="0" /><path
         d="m 2686.96,6763.53 c 0,50 -40.53,90.53 -90.53,90.53 -50,0 -90.54,-40.53 -90.54,-90.53 0,-50 40.54,-90.53 90.54,-90.53 50,0 90.53,40.53 90.53,90.53 z"
         style="fill:none;stroke:#e30613;stroke-width:20;stroke-linecap:butt;stroke-linejoin:miter;stroke-miterlimit:10;stroke-dasharray:none;stroke-opacity:1"
         id="path124"
         inkscape:connector-curvature="0" /><path
         d="m 2612.35,6763.53 c 0,8.79 -7.13,15.92 -15.92,15.92 -8.79,0 -15.92,-7.13 -15.92,-15.92 0,-8.79 7.13,-15.92 15.92,-15.92 8.79,0 15.92,7.13 15.92,15.92"
         style="fill:#e30613;fill-opacity:1;fill-rule:nonzero;stroke:none"
         id="path126"
         inkscape:connector-curvature="0" /><path
         d="m 2464.27,6766.34 36.22,0"
         style="fill:none;stroke:#e30613;stroke-width:20;stroke-linecap:butt;stroke-linejoin:miter;stroke-miterlimit:10;stroke-dasharray:none;stroke-opacity:1"
         id="path128"
         inkscape:connector-curvature="0" /><path
         d="m 2689.89,6763.84 36.23,0"
         style="fill:none;stroke:#e30613;stroke-width:20;stroke-linecap:butt;stroke-linejoin:miter;stroke-miterlimit:10;stroke-dasharray:none;stroke-opacity:1"
         id="path130"
         inkscape:connector-curvature="0" /><path
         d="m 2594.98,6634.58 0,36.22"
         style="fill:none;stroke:#e30613;stroke-width:20;stroke-linecap:butt;stroke-linejoin:miter;stroke-miterlimit:10;stroke-dasharray:none;stroke-opacity:1"
         id="path132"
         inkscape:connector-curvature="0" /><path
         d="m 2597.48,6860.21 0,36.22"
         style="fill:none;stroke:#e30613;stroke-width:20;stroke-linecap:butt;stroke-linejoin:miter;stroke-miterlimit:10;stroke-dasharray:none;stroke-opacity:1"
         id="path134"
         inkscape:connector-curvature="0" /><path
         d="m 1929.06,1212.15 1327.64,0"
         style="fill:none;stroke:#000000;stroke-width:20;stroke-linecap:butt;stroke-linejoin:miter;stroke-miterlimit:10;stroke-dasharray:none;stroke-opacity:1"
         id="path136"
         inkscape:connector-curvature="0" /><path
         d="m 1925.74,1076.07 1327.64,0"
         style="fill:none;stroke:#000000;stroke-width:20;stroke-linecap:butt;stroke-linejoin:miter;stroke-miterlimit:10;stroke-dasharray:none;stroke-opacity:1"
         id="path138"
         inkscape:connector-curvature="0" /><path
         d="m 2290.84,999.73 589.14,0"
         style="fill:none;stroke:#000000;stroke-width:10;stroke-linecap:butt;stroke-linejoin:miter;stroke-miterlimit:10;stroke-dasharray:none;stroke-opacity:1"
         id="path140"
         inkscape:connector-curvature="0" /><path
         d="m 2355.57,918.41 461.35,0"
         style="fill:none;stroke:#000000;stroke-width:10;stroke-linecap:butt;stroke-linejoin:miter;stroke-miterlimit:10;stroke-dasharray:none;stroke-opacity:1"
         id="path142"
         inkscape:connector-curvature="0" /><path
         d="m 2398.71,845.391 373.4,0"
         style="fill:none;stroke:#000000;stroke-width:10;stroke-linecap:butt;stroke-linejoin:miter;stroke-miterlimit:10;stroke-dasharray:none;stroke-opacity:1"
         id="path144"
         inkscape:connector-curvature="0" /><path
         d="m 2425.27,772.371 320.29,0"
         style="fill:none;stroke:#000000;stroke-width:10;stroke-linecap:butt;stroke-linejoin:miter;stroke-miterlimit:10;stroke-dasharray:none;stroke-opacity:1"
         id="path146"
         inkscape:connector-curvature="0" /><path
         d="m 2290.84,624.672 599.1,0"
         style="fill:none;stroke:#000000;stroke-width:20;stroke-linecap:butt;stroke-linejoin:miter;stroke-miterlimit:10;stroke-dasharray:none;stroke-opacity:1"
         id="path148"
         inkscape:connector-curvature="0" /><path
         d="m 2443.52,694.371 283.78,0"
         style="fill:none;stroke:#000000;stroke-width:10;stroke-linecap:butt;stroke-linejoin:miter;stroke-miterlimit:10;stroke-dasharray:none;stroke-opacity:1"
         id="path150"
         inkscape:connector-curvature="0" /><path
         d="m 2586.24,1869.33 0,-1324.318"
         style="fill:none;stroke:#000000;stroke-width:20;stroke-linecap:butt;stroke-linejoin:miter;stroke-miterlimit:10;stroke-dasharray:none;stroke-opacity:1"
         id="path152"
         inkscape:connector-curvature="0" /><path
         d="m 3265.78,1204.2 c 0,372.11 -301.66,673.77 -673.78,673.77 -372.11,0 -673.77,-301.66 -673.77,-673.77 0,-372.118 301.66,-673.778 673.77,-673.778 372.12,0 673.78,301.66 673.78,673.778 z"
         style="fill:none;stroke:#000000;stroke-width:70;stroke-linecap:butt;stroke-linejoin:miter;stroke-miterlimit:10;stroke-dasharray:none;stroke-opacity:1"
         id="path154"
         inkscape:connector-curvature="0" /><path
         d="m 2617.9,1210.49 139.41,0"
         style="fill:none;stroke:#e30613;stroke-width:30;stroke-linecap:butt;stroke-linejoin:miter;stroke-miterlimit:10;stroke-dasharray:none;stroke-opacity:1"
         id="path156"
         inkscape:connector-curvature="0" /><path
         d="m 2587.35,1178.23 0,-99.4"
         style="fill:none;stroke:#e30613;stroke-width:30;stroke-linecap:butt;stroke-linejoin:miter;stroke-miterlimit:10;stroke-dasharray:none;stroke-opacity:1"
         id="path158"
         inkscape:connector-curvature="0" /><path
         d="m 2417.39,1210.49 139.4,0"
         style="fill:none;stroke:#e30613;stroke-width:30;stroke-linecap:butt;stroke-linejoin:miter;stroke-miterlimit:10;stroke-dasharray:none;stroke-opacity:1"
         id="path160"
         inkscape:connector-curvature="0" /><path
         d="m 2202.89,1077.17 c 0,0 117.27,-82.971 184.76,-210.209 67.49,-127.231 65.27,-241.18 65.27,-241.18"
         style="fill:none;stroke:#000000;stroke-width:10;stroke-linecap:butt;stroke-linejoin:miter;stroke-miterlimit:10;stroke-dasharray:none;stroke-opacity:1"
         id="path162"
         inkscape:connector-curvature="0" /><path
         d="m 2970.76,1077.17 c 0,0 -117.27,-82.971 -184.76,-210.209 -67.49,-127.231 -65.28,-241.18 -65.28,-241.18"
         style="fill:none;stroke:#000000;stroke-width:10;stroke-linecap:butt;stroke-linejoin:miter;stroke-miterlimit:10;stroke-dasharray:none;stroke-opacity:1"
         id="path164"
         inkscape:connector-curvature="0" /><path
         d="m 5149.01,1204.2 c 0,372.11 -301.66,673.77 -673.78,673.77 -372.11,0 -673.77,-301.66 -673.77,-673.77 0,-372.118 301.66,-673.778 673.77,-673.778 372.12,0 673.78,301.66 673.78,673.778 z"
         style="fill:none;stroke:#000000;stroke-width:70;stroke-linecap:butt;stroke-linejoin:miter;stroke-miterlimit:10;stroke-dasharray:none;stroke-opacity:1"
         id="path166"
         inkscape:connector-curvature="0" /><path
         d="m 4041.43,1218.77 189.03,0 0,-87.2"
         style="fill:none;stroke:#000000;stroke-width:20;stroke-linecap:butt;stroke-linejoin:miter;stroke-miterlimit:10;stroke-dasharray:none;stroke-opacity:1"
         id="path168"
         inkscape:connector-curvature="0" /><path
         d="m 4282.59,1207.4 0,-34.1"
         style="fill:none;stroke:#000000;stroke-width:10;stroke-linecap:butt;stroke-linejoin:miter;stroke-miterlimit:10;stroke-dasharray:none;stroke-opacity:1"
         id="path170"
         inkscape:connector-curvature="0" /><path
         d="m 4378.07,1207.4 0,-34.1"
         style="fill:none;stroke:#000000;stroke-width:10;stroke-linecap:butt;stroke-linejoin:miter;stroke-miterlimit:10;stroke-dasharray:none;stroke-opacity:1"
         id="path172"
         inkscape:connector-curvature="0" /><path
         d="m 4330.33,1226.89 0,-73.08"
         style="fill:none;stroke:#000000;stroke-width:10;stroke-linecap:butt;stroke-linejoin:miter;stroke-miterlimit:10;stroke-dasharray:none;stroke-opacity:1"
         id="path174"
         inkscape:connector-curvature="0" /><path
         d="m 4941.4,1218.77 -189.02,0 0,-87.2"
         style="fill:none;stroke:#000000;stroke-width:20;stroke-linecap:butt;stroke-linejoin:miter;stroke-miterlimit:10;stroke-dasharray:none;stroke-opacity:1"
         id="path176"
         inkscape:connector-curvature="0" /><path
         d="m 4700.25,1207.4 0,-34.1"
         style="fill:none;stroke:#000000;stroke-width:10;stroke-linecap:butt;stroke-linejoin:miter;stroke-miterlimit:10;stroke-dasharray:none;stroke-opacity:1"
         id="path178"
         inkscape:connector-curvature="0" /><path
         d="m 4604.77,1207.4 0,-34.1"
         style="fill:none;stroke:#000000;stroke-width:10;stroke-linecap:butt;stroke-linejoin:miter;stroke-miterlimit:10;stroke-dasharray:none;stroke-opacity:1"
         id="path180"
         inkscape:connector-curvature="0" /><path
         d="m 4652.51,1226.89 0,-73.08"
         style="fill:none;stroke:#000000;stroke-width:10;stroke-linecap:butt;stroke-linejoin:miter;stroke-miterlimit:10;stroke-dasharray:none;stroke-opacity:1"
         id="path182"
         inkscape:connector-curvature="0" /><path
         d="m 4443.26,1142.77 49.37,74.05 50.63,-72.1"
         style="fill:none;stroke:#e30613;stroke-width:30;stroke-linecap:butt;stroke-linejoin:miter;stroke-miterlimit:10;stroke-dasharray:none;stroke-opacity:1"
         id="path184"
         inkscape:connector-curvature="0" /><path
         d="m 4443.26,1053.62 49.37,74.05 50.63,-72.1"
         style="fill:none;stroke:#000000;stroke-width:10;stroke-linecap:butt;stroke-linejoin:miter;stroke-miterlimit:10;stroke-dasharray:none;stroke-opacity:1"
         id="path186"
         inkscape:connector-curvature="0" /><path
         d="m 4443.26,964.461 49.37,74.049 50.63,-72.1"
         style="fill:none;stroke:#000000;stroke-width:10;stroke-linecap:butt;stroke-linejoin:miter;stroke-miterlimit:10;stroke-dasharray:none;stroke-opacity:1"
         id="path188"
         inkscape:connector-curvature="0" /><path
         d="m 4492.13,946.93 0,-423.219"
         style="fill:none;stroke:#000000;stroke-width:15;stroke-linecap:butt;stroke-linejoin:miter;stroke-miterlimit:10;stroke-dasharray:none;stroke-opacity:1"
         id="path190"
         inkscape:connector-curvature="0" /><path
         d="m 1382.55,1204.2 c 0,372.11 -301.66,673.77 -673.777,673.77 C 336.66,1877.97 35,1576.31 35,1204.2 35,832.082 336.66,530.422 708.773,530.422 c 372.117,0 673.777,301.66 673.777,673.778 z"
         style="fill:none;stroke:#000000;stroke-width:70;stroke-linecap:butt;stroke-linejoin:miter;stroke-miterlimit:10;stroke-dasharray:none;stroke-opacity:1"
         id="path192"
         inkscape:connector-curvature="0" /><path
         d="m 714.016,1158.82 0,-620.941"
         style="fill:none;stroke:#000000;stroke-width:20;stroke-linecap:butt;stroke-linejoin:miter;stroke-miterlimit:10;stroke-dasharray:none;stroke-opacity:1"
         id="path194"
         inkscape:connector-curvature="0" /><path
         d="m 1013.13,1204.24 381.16,0"
         style="fill:none;stroke:#000000;stroke-width:20;stroke-linecap:butt;stroke-linejoin:miter;stroke-miterlimit:10;stroke-dasharray:none;stroke-opacity:1"
         id="path196"
         inkscape:connector-curvature="0" /><path
         d="m 402.332,1204.24 -375.1992,0"
         style="fill:none;stroke:#000000;stroke-width:20;stroke-linecap:butt;stroke-linejoin:miter;stroke-miterlimit:10;stroke-dasharray:none;stroke-opacity:1"
         id="path198"
         inkscape:connector-curvature="0" /><path
         d="m 203.672,1246.02 0,-77.47"
         style="fill:none;stroke:#000000;stroke-width:10;stroke-linecap:butt;stroke-linejoin:miter;stroke-miterlimit:10;stroke-dasharray:none;stroke-opacity:1"
         id="path200"
         inkscape:connector-curvature="0" /><path
         d="m 400.348,1267.81 0,-139.06"
         style="fill:none;stroke:#000000;stroke-width:20;stroke-linecap:butt;stroke-linejoin:miter;stroke-miterlimit:10;stroke-dasharray:none;stroke-opacity:1"
         id="path202"
         inkscape:connector-curvature="0" /><path
         d="m 1009.15,1269.8 0,-139.07"
         style="fill:none;stroke:#000000;stroke-width:20;stroke-linecap:butt;stroke-linejoin:miter;stroke-miterlimit:10;stroke-dasharray:none;stroke-opacity:1"
         id="path204"
         inkscape:connector-curvature="0" /><path
         d="m 1201.86,1238.01 0,-71.52"
         style="fill:none;stroke:#000000;stroke-width:10;stroke-linecap:butt;stroke-linejoin:miter;stroke-miterlimit:10;stroke-dasharray:none;stroke-opacity:1"
         id="path206"
         inkscape:connector-curvature="0" /><path
         d="m 674.016,1097.23 80,0"
         style="fill:none;stroke:#000000;stroke-width:10;stroke-linecap:butt;stroke-linejoin:miter;stroke-miterlimit:10;stroke-dasharray:none;stroke-opacity:1"
         id="path208"
         inkscape:connector-curvature="0" /><path
         d="m 674.016,979.27 80,0"
         style="fill:none;stroke:#000000;stroke-width:10;stroke-linecap:butt;stroke-linejoin:miter;stroke-miterlimit:10;stroke-dasharray:none;stroke-opacity:1"
         id="path210"
         inkscape:connector-curvature="0" /><path
         d="m 674.016,861.309 80,0"
         style="fill:none;stroke:#000000;stroke-width:10;stroke-linecap:butt;stroke-linejoin:miter;stroke-miterlimit:10;stroke-dasharray:none;stroke-opacity:1"
         id="path212"
         inkscape:connector-curvature="0" /><path
         d="m 674.016,743.352 80,0"
         style="fill:none;stroke:#000000;stroke-width:10;stroke-linecap:butt;stroke-linejoin:miter;stroke-miterlimit:10;stroke-dasharray:none;stroke-opacity:1"
         id="path214"
         inkscape:connector-curvature="0" /><path
         d="m 674.016,625.391 80,0"
         style="fill:none;stroke:#000000;stroke-width:10;stroke-linecap:butt;stroke-linejoin:miter;stroke-miterlimit:10;stroke-dasharray:none;stroke-opacity:1"
         id="path216"
         inkscape:connector-curvature="0" /><path
         d="m 637.789,1137.5 74.711,105.21 70.137,-102.16"
         style="fill:none;stroke:#e30613;stroke-width:20;stroke-linecap:butt;stroke-linejoin:miter;stroke-miterlimit:10;stroke-dasharray:none;stroke-opacity:1"
         id="path218"
         inkscape:connector-curvature="0" /><path
         d="m 7032.24,4909.37 c 0,372.12 -301.66,673.78 -673.78,673.78 -372.11,0 -673.77,-301.66 -673.77,-673.78 0,-372.11 301.66,-673.77 673.77,-673.77 372.12,0 673.78,301.66 673.78,673.77 z"
         style="fill:none;stroke:#000000;stroke-width:70;stroke-linecap:butt;stroke-linejoin:miter;stroke-miterlimit:10;stroke-dasharray:none;stroke-opacity:1"
         id="path220"
         inkscape:connector-curvature="0" /><path
         d="m 6362.89,5593.31 0,-1358.3"
         style="fill:none;stroke:#000000;stroke-width:20;stroke-linecap:butt;stroke-linejoin:miter;stroke-miterlimit:10;stroke-dasharray:none;stroke-opacity:1"
         id="path222"
         inkscape:connector-curvature="0" /><path
         d="m 5914.78,4908.39 898.31,0"
         style="fill:none;stroke:#000000;stroke-width:20;stroke-linecap:butt;stroke-linejoin:miter;stroke-miterlimit:10;stroke-dasharray:none;stroke-opacity:1"
         id="path224"
         inkscape:connector-curvature="0" /><path
         d="m 6809.95,4944.96 0,-70"
         style="fill:none;stroke:#000000;stroke-width:20;stroke-linecap:butt;stroke-linejoin:miter;stroke-miterlimit:10;stroke-dasharray:none;stroke-opacity:1"
         id="path226"
         inkscape:connector-curvature="0" /><path
         d="m 5912.69,4943.1 0,-70"
         style="fill:none;stroke:#000000;stroke-width:20;stroke-linecap:butt;stroke-linejoin:miter;stroke-miterlimit:10;stroke-dasharray:none;stroke-opacity:1"
         id="path228"
         inkscape:connector-curvature="0" /><path
         d="m 6332.53,4757.65 59.67,0"
         style="fill:none;stroke:#000000;stroke-width:10;stroke-linecap:butt;stroke-linejoin:miter;stroke-miterlimit:10;stroke-dasharray:none;stroke-opacity:1"
         id="path230"
         inkscape:connector-curvature="0" /><path
         d="m 6223.64,4688.55 275.36,0"
         style="fill:none;stroke:#000000;stroke-width:10;stroke-linecap:butt;stroke-linejoin:miter;stroke-miterlimit:10;stroke-dasharray:none;stroke-opacity:1"
         id="path232"
         inkscape:connector-curvature="0" /><path
         d="m 6325.2,4626.78 69.1,0"
         style="fill:none;stroke:#000000;stroke-width:10;stroke-linecap:butt;stroke-linejoin:miter;stroke-miterlimit:10;stroke-dasharray:none;stroke-opacity:1"
         id="path234"
         inkscape:connector-curvature="0" /><path
         d="m 6225.73,4562.91 275.36,0"
         style="fill:none;stroke:#000000;stroke-width:10;stroke-linecap:butt;stroke-linejoin:miter;stroke-miterlimit:10;stroke-dasharray:none;stroke-opacity:1"
         id="path236"
         inkscape:connector-curvature="0" /><path
         d="m 6363.93,4977.34 0,-139.12"
         style="fill:none;stroke:#e30613;stroke-width:20;stroke-linecap:butt;stroke-linejoin:miter;stroke-miterlimit:10;stroke-dasharray:none;stroke-opacity:1"
         id="path238"
         inkscape:connector-curvature="0" /><path
         d="m 6294.37,4907.78 139.13,0"
         style="fill:none;stroke:#e30613;stroke-width:20;stroke-linecap:butt;stroke-linejoin:miter;stroke-miterlimit:10;stroke-dasharray:none;stroke-opacity:1"
         id="path240"
         inkscape:connector-curvature="0" /><path
         d="m 4716.67,6758.48 c 0,133.34 -108.1,241.43 -241.44,241.43 -133.34,0 -241.43,-108.09 -241.43,-241.43 0,-133.34 108.09,-241.43 241.43,-241.43 133.34,0 241.44,108.09 241.44,241.43 z"
         style="fill:none;stroke:#000000;stroke-width:20;stroke-linecap:butt;stroke-linejoin:miter;stroke-miterlimit:10;stroke-dasharray:none;stroke-opacity:1"
         id="path242"
         inkscape:connector-curvature="0" /><path
         d="m 4475.23,7121.54 0,-720.67"
         style="fill:none;stroke:#000000;stroke-width:20;stroke-linecap:butt;stroke-linejoin:miter;stroke-miterlimit:10;stroke-dasharray:none;stroke-opacity:1"
         id="path244"
         inkscape:connector-curvature="0" /><path
         d="m 4114.9,6761.21 720.67,0"
         style="fill:none;stroke:#000000;stroke-width:20;stroke-linecap:butt;stroke-linejoin:miter;stroke-miterlimit:10;stroke-dasharray:none;stroke-opacity:1"
         id="path246"
         inkscape:connector-curvature="0" /><path
         d="m 4598.67,6758.48 c 0,68.18 -55.26,123.44 -123.44,123.44 -68.17,0 -123.44,-55.26 -123.44,-123.44 0,-68.17 55.27,-123.44 123.44,-123.44 68.18,0 123.44,55.27 123.44,123.44"
         style="fill:#e30613;fill-opacity:1;fill-rule:nonzero;stroke:none"
         id="path248"
         inkscape:connector-curvature="0" /><g
         id="g250"><g
           id="g252"
           clip-path="url(#clipPath254)"><path
             d="m 4475.23,7121.54 0,-720.67"
             style="fill:none;stroke:#ffffff;stroke-width:20;stroke-linecap:butt;stroke-linejoin:miter;stroke-miterlimit:10;stroke-dasharray:none;stroke-opacity:1"
             id="path258"
             inkscape:connector-curvature="0" /><path
             d="m 4114.9,6761.21 720.67,0"
             style="fill:none;stroke:#ffffff;stroke-width:20;stroke-linecap:butt;stroke-linejoin:miter;stroke-miterlimit:10;stroke-dasharray:none;stroke-opacity:1"
             id="path260"
             inkscape:connector-curvature="0" /></g></g><path
         d="m 5149.01,6761.21 c 0,372.11 -301.66,673.77 -673.78,673.77 -372.11,0 -673.77,-301.66 -673.77,-673.77 0,-372.12 301.66,-673.78 673.77,-673.78 372.12,0 673.78,301.66 673.78,673.78 z"
         style="fill:none;stroke:#000000;stroke-width:70;stroke-linecap:butt;stroke-linejoin:miter;stroke-miterlimit:10;stroke-dasharray:none;stroke-opacity:1"
         id="path262"
         inkscape:connector-curvature="0" /><path
         d="m 986.723,4909.26 c 0,153.83 -124.707,278.54 -278.539,278.54 -153.832,0 -278.539,-124.71 -278.539,-278.54 0,-153.83 124.707,-278.54 278.539,-278.54 153.832,0 278.539,124.71 278.539,278.54 z"
         style="fill:none;stroke:#000000;stroke-width:20;stroke-linecap:butt;stroke-linejoin:miter;stroke-miterlimit:10;stroke-dasharray:none;stroke-opacity:1"
         id="path264"
         inkscape:connector-curvature="0" /><path
         d="m 915.758,4909.26 c 0,114.64 -92.938,207.57 -207.574,207.57 -114.641,0 -207.575,-92.93 -207.575,-207.57 0,-114.64 92.934,-207.57 207.575,-207.57 114.636,0 207.574,92.93 207.574,207.57 z"
         style="fill:none;stroke:#000000;stroke-width:20;stroke-linecap:butt;stroke-linejoin:miter;stroke-miterlimit:10;stroke-dasharray:none;stroke-opacity:1"
         id="path266"
         inkscape:connector-curvature="0" /><path
         d="m 709.367,5074.84 0,286.23"
         style="fill:none;stroke:#000000;stroke-width:20;stroke-linecap:butt;stroke-linejoin:miter;stroke-miterlimit:10;stroke-dasharray:none;stroke-opacity:1"
         id="path268"
         inkscape:connector-curvature="0" /><path
         d="m 874.949,4910.44 287.411,0"
         style="fill:none;stroke:#000000;stroke-width:20;stroke-linecap:butt;stroke-linejoin:miter;stroke-miterlimit:10;stroke-dasharray:none;stroke-opacity:1"
         id="path270"
         inkscape:connector-curvature="0" /><path
         d="m 708.184,4743.68 0,-289.78"
         style="fill:none;stroke:#000000;stroke-width:20;stroke-linecap:butt;stroke-linejoin:miter;stroke-miterlimit:10;stroke-dasharray:none;stroke-opacity:1"
         id="path272"
         inkscape:connector-curvature="0" /><path
         d="m 541.414,4909.26 -286.223,0"
         style="fill:none;stroke:#000000;stroke-width:20;stroke-linecap:butt;stroke-linejoin:miter;stroke-miterlimit:10;stroke-dasharray:none;stroke-opacity:1"
         id="path274"
         inkscape:connector-curvature="0" /><path
         d="m 647.863,4908.08 37.848,0"
         style="fill:none;stroke:#e30613;stroke-width:20;stroke-linecap:butt;stroke-linejoin:miter;stroke-miterlimit:10;stroke-dasharray:none;stroke-opacity:1"
         id="path276"
         inkscape:connector-curvature="0" /><path
         d="m 731.84,4909.26 37.848,0"
         style="fill:none;stroke:#e30613;stroke-width:20;stroke-linecap:butt;stroke-linejoin:miter;stroke-miterlimit:10;stroke-dasharray:none;stroke-opacity:1"
         id="path278"
         inkscape:connector-curvature="0" /><path
         d="m 708.184,4934.1 0,36.66"
         style="fill:none;stroke:#e30613;stroke-width:20;stroke-linecap:butt;stroke-linejoin:miter;stroke-miterlimit:10;stroke-dasharray:none;stroke-opacity:1"
         id="path280"
         inkscape:connector-curvature="0" /><path
         d="m 709.367,4884.42 0,-38.82"
         style="fill:none;stroke:#e30613;stroke-width:20;stroke-linecap:butt;stroke-linejoin:miter;stroke-miterlimit:10;stroke-dasharray:none;stroke-opacity:1"
         id="path282"
         inkscape:connector-curvature="0" /><path
         d="m 1382.55,4907.49 c 0,372.11 -301.66,673.77 -673.777,673.77 C 336.66,5581.26 35,5279.6 35,4907.49 c 0,-372.12 301.66,-673.78 673.773,-673.78 372.117,0 673.777,301.66 673.777,673.78 z"
         style="fill:none;stroke:#000000;stroke-width:70;stroke-linecap:butt;stroke-linejoin:miter;stroke-miterlimit:10;stroke-dasharray:none;stroke-opacity:1"
         id="path284"
         inkscape:connector-curvature="0" /><path
         d="m 2964.97,4909.65 c 0,208.14 -168.73,376.86 -376.87,376.86 -208.13,0 -376.86,-168.72 -376.86,-376.86 0,-208.14 168.73,-376.87 376.86,-376.87 208.14,0 376.87,168.73 376.87,376.87 z"
         style="fill:none;stroke:#000000;stroke-width:20;stroke-linecap:butt;stroke-linejoin:miter;stroke-miterlimit:10;stroke-dasharray:none;stroke-opacity:1"
         id="path286"
         inkscape:connector-curvature="0" /><path
         d="m 2592,5362.98 0,-908.22"
         style="fill:none;stroke:#000000;stroke-width:20;stroke-linecap:butt;stroke-linejoin:miter;stroke-miterlimit:10;stroke-dasharray:none;stroke-opacity:1"
         id="path288"
         inkscape:connector-curvature="0" /><path
         d="m 2137.89,4908.87 908.22,0"
         style="fill:none;stroke:#000000;stroke-width:20;stroke-linecap:butt;stroke-linejoin:miter;stroke-miterlimit:10;stroke-dasharray:none;stroke-opacity:1"
         id="path290"
         inkscape:connector-curvature="0" /><path
         d="m 2517.1,4837.09 151.367,0 0,148.242 -151.367,0 0,-148.242 z"
         style="fill:#ffffff;fill-opacity:1;fill-rule:nonzero;stroke:none"
         id="path292"
         inkscape:connector-curvature="0" /><path
         d="m 2517.1,4837.09 151.367,0 0,148.242 -151.367,0 0,-148.242 z"
         style="fill:none;stroke:#e30613;stroke-width:20;stroke-linecap:butt;stroke-linejoin:miter;stroke-miterlimit:10;stroke-dasharray:none;stroke-opacity:1"
         id="path294"
         inkscape:connector-curvature="0" /><path
         d="m 2554.55,5213.17 76.47,0"
         style="fill:none;stroke:#000000;stroke-width:10;stroke-linecap:butt;stroke-linejoin:miter;stroke-miterlimit:10;stroke-dasharray:none;stroke-opacity:1"
         id="path296"
         inkscape:connector-curvature="0" /><path
         d="m 2556.11,5061.8 76.47,0"
         style="fill:none;stroke:#000000;stroke-width:10;stroke-linecap:butt;stroke-linejoin:miter;stroke-miterlimit:10;stroke-dasharray:none;stroke-opacity:1"
         id="path298"
         inkscape:connector-curvature="0" /><path
         d="m 2520.22,5135.14 146.69,0"
         style="fill:none;stroke:#000000;stroke-width:10;stroke-linecap:butt;stroke-linejoin:miter;stroke-miterlimit:10;stroke-dasharray:none;stroke-opacity:1"
         id="path300"
         inkscape:connector-curvature="0" /><path
         d="m 2286.92,4870.64 0,76.46"
         style="fill:none;stroke:#000000;stroke-width:10;stroke-linecap:butt;stroke-linejoin:miter;stroke-miterlimit:10;stroke-dasharray:none;stroke-opacity:1"
         id="path302"
         inkscape:connector-curvature="0" /><path
         d="m 2438.29,4872.2 0,76.46"
         style="fill:none;stroke:#000000;stroke-width:10;stroke-linecap:butt;stroke-linejoin:miter;stroke-miterlimit:10;stroke-dasharray:none;stroke-opacity:1"
         id="path304"
         inkscape:connector-curvature="0" /><path
         d="m 2364.95,4836.3 0,146.69"
         style="fill:none;stroke:#000000;stroke-width:10;stroke-linecap:butt;stroke-linejoin:miter;stroke-miterlimit:10;stroke-dasharray:none;stroke-opacity:1"
         id="path306"
         inkscape:connector-curvature="0" /><path
         d="m 2631.8,4608.47 -76.47,0"
         style="fill:none;stroke:#000000;stroke-width:10;stroke-linecap:butt;stroke-linejoin:miter;stroke-miterlimit:10;stroke-dasharray:none;stroke-opacity:1"
         id="path308"
         inkscape:connector-curvature="0" /><path
         d="m 2630.24,4759.84 -76.47,0"
         style="fill:none;stroke:#000000;stroke-width:10;stroke-linecap:butt;stroke-linejoin:miter;stroke-miterlimit:10;stroke-dasharray:none;stroke-opacity:1"
         id="path310"
         inkscape:connector-curvature="0" /><path
         d="m 2666.13,4686.5 -146.69,0"
         style="fill:none;stroke:#000000;stroke-width:10;stroke-linecap:butt;stroke-linejoin:miter;stroke-miterlimit:10;stroke-dasharray:none;stroke-opacity:1"
         id="path312"
         inkscape:connector-curvature="0" /><path
         d="m 2899.43,4951 0,-76.46"
         style="fill:none;stroke:#000000;stroke-width:10;stroke-linecap:butt;stroke-linejoin:miter;stroke-miterlimit:10;stroke-dasharray:none;stroke-opacity:1"
         id="path314"
         inkscape:connector-curvature="0" /><path
         d="m 2748.06,4949.44 0,-76.46"
         style="fill:none;stroke:#000000;stroke-width:10;stroke-linecap:butt;stroke-linejoin:miter;stroke-miterlimit:10;stroke-dasharray:none;stroke-opacity:1"
         id="path316"
         inkscape:connector-curvature="0" /><path
         d="m 2821.4,4985.33 0,-146.68"
         style="fill:none;stroke:#000000;stroke-width:10;stroke-linecap:butt;stroke-linejoin:miter;stroke-miterlimit:10;stroke-dasharray:none;stroke-opacity:1"
         id="path318"
         inkscape:connector-curvature="0" /><path
         d="m 3265.78,4908.87 c 0,372.11 -301.66,673.77 -673.78,673.77 -372.11,0 -673.77,-301.66 -673.77,-673.77 0,-372.12 301.66,-673.78 673.77,-673.78 372.12,0 673.78,301.66 673.78,673.78 z"
         style="fill:none;stroke:#000000;stroke-width:70;stroke-linecap:butt;stroke-linejoin:miter;stroke-miterlimit:10;stroke-dasharray:none;stroke-opacity:1"
         id="path320"
         inkscape:connector-curvature="0" /><path
         d="m 4845.79,4907.59 c 0,203.95 -165.33,369.28 -369.28,369.28 -203.95,0 -369.28,-165.33 -369.28,-369.28 0,-203.95 165.33,-369.28 369.28,-369.28 203.95,0 369.28,165.33 369.28,369.28 z"
         style="fill:none;stroke:#000000;stroke-width:20;stroke-linecap:butt;stroke-linejoin:miter;stroke-miterlimit:10;stroke-dasharray:none;stroke-opacity:1"
         id="path322"
         inkscape:connector-curvature="0" /><path
         d="m 4666.9,4907.59 c 0,105.15 -85.24,190.39 -190.39,190.39 -105.15,0 -190.39,-85.24 -190.39,-190.39 0,-105.15 85.24,-190.39 190.39,-190.39 105.15,0 190.39,85.24 190.39,190.39 z"
         style="fill:none;stroke:#000000;stroke-width:10;stroke-linecap:butt;stroke-linejoin:miter;stroke-miterlimit:10;stroke-dasharray:none;stroke-opacity:1"
         id="path324"
         inkscape:connector-curvature="0" /><path
         d="m 4476.51,4813.04 c 52.22,0 94.56,42.33 94.56,94.55"
         style="fill:none;stroke:#000000;stroke-width:20;stroke-linecap:butt;stroke-linejoin:miter;stroke-miterlimit:10;stroke-dasharray:none;stroke-opacity:1"
         id="path326"
         inkscape:connector-curvature="0" /><path
         d="m 4476.51,5002.15 c -52.22,0 -94.55,-42.34 -94.55,-94.56"
         style="fill:none;stroke:#000000;stroke-width:20;stroke-linecap:butt;stroke-linejoin:miter;stroke-miterlimit:10;stroke-dasharray:none;stroke-opacity:1"
         id="path328"
         inkscape:connector-curvature="0" /><path
         d="m 4476.51,4860.31 c 26.11,0 47.28,21.17 47.28,47.28"
         style="fill:none;stroke:#e30613;stroke-width:20;stroke-linecap:butt;stroke-linejoin:miter;stroke-miterlimit:10;stroke-dasharray:none;stroke-opacity:1"
         id="path330"
         inkscape:connector-curvature="0" /><path
         d="m 4476.51,4954.87 c -26.11,0 -47.28,-21.17 -47.28,-47.28"
         style="fill:none;stroke:#e30613;stroke-width:20;stroke-linecap:butt;stroke-linejoin:miter;stroke-miterlimit:10;stroke-dasharray:none;stroke-opacity:1"
         id="path332"
         inkscape:connector-curvature="0" /><path
         d="m 4475.23,5340.76 0,-863.78"
         style="fill:none;stroke:#000000;stroke-width:20;stroke-linecap:butt;stroke-linejoin:miter;stroke-miterlimit:10;stroke-dasharray:none;stroke-opacity:1"
         id="path334"
         inkscape:connector-curvature="0" /><path
         d="m 4043.34,4908.87 863.78,0"
         style="fill:none;stroke:#000000;stroke-width:20;stroke-linecap:butt;stroke-linejoin:miter;stroke-miterlimit:10;stroke-dasharray:none;stroke-opacity:1"
         id="path336"
         inkscape:connector-curvature="0" /><path
         d="m 5149.01,4908.87 c 0,372.11 -301.66,673.77 -673.78,673.77 -372.11,0 -673.77,-301.66 -673.77,-673.77 0,-372.12 301.66,-673.78 673.77,-673.78 372.12,0 673.78,301.66 673.78,673.78 z"
         style="fill:none;stroke:#000000;stroke-width:70;stroke-linecap:butt;stroke-linejoin:miter;stroke-miterlimit:10;stroke-dasharray:none;stroke-opacity:1"
         id="path338"
         inkscape:connector-curvature="0" /><path
         d="m 1133.62,3053.77 c 0,234.63 -190.21,424.84 -424.847,424.84 -234.632,0 -424.843,-190.21 -424.843,-424.84 0,-234.64 190.211,-424.85 424.843,-424.85 234.637,0 424.847,190.21 424.847,424.85 z"
         style="fill:none;stroke:#000000;stroke-width:20;stroke-linecap:butt;stroke-linejoin:miter;stroke-miterlimit:10;stroke-dasharray:none;stroke-opacity:1"
         id="path340"
         inkscape:connector-curvature="0" /><path
         d="m 921.195,3053.77 c 0,117.31 -95.101,212.42 -212.422,212.42 -117.316,0 -212.421,-95.11 -212.421,-212.42 0,-117.32 95.105,-212.43 212.421,-212.43 117.321,0 212.422,95.11 212.422,212.43 z"
         style="fill:none;stroke:#000000;stroke-width:20;stroke-linecap:butt;stroke-linejoin:miter;stroke-miterlimit:10;stroke-dasharray:none;stroke-opacity:1"
         id="path342"
         inkscape:connector-curvature="0" /><path
         d="m 709.434,3180.43 0,168.88"
         style="fill:none;stroke:#000000;stroke-width:10;stroke-linecap:butt;stroke-linejoin:miter;stroke-miterlimit:10;stroke-dasharray:none;stroke-opacity:1"
         id="path344"
         inkscape:connector-curvature="0" /><path
         d="m 708.773,2924.47 0,-170.21"
         style="fill:none;stroke:#000000;stroke-width:10;stroke-linecap:butt;stroke-linejoin:miter;stroke-miterlimit:10;stroke-dasharray:none;stroke-opacity:1"
         id="path346"
         inkscape:connector-curvature="0" /><path
         d="m 665.895,3351.95 87.078,0"
         style="fill:none;stroke:#000000;stroke-width:10;stroke-linecap:butt;stroke-linejoin:miter;stroke-miterlimit:10;stroke-dasharray:none;stroke-opacity:1"
         id="path348"
         inkscape:connector-curvature="0" /><path
         d="m 669.191,2755.58 81.805,0"
         style="fill:none;stroke:#000000;stroke-width:10;stroke-linecap:butt;stroke-linejoin:miter;stroke-miterlimit:10;stroke-dasharray:none;stroke-opacity:1"
         id="path350"
         inkscape:connector-curvature="0" /><path
         d="m 582.113,3053.11 -168.883,0"
         style="fill:none;stroke:#000000;stroke-width:10;stroke-linecap:butt;stroke-linejoin:miter;stroke-miterlimit:10;stroke-dasharray:none;stroke-opacity:1"
         id="path352"
         inkscape:connector-curvature="0" /><path
         d="m 838.074,3052.45 170.206,0"
         style="fill:none;stroke:#000000;stroke-width:10;stroke-linecap:butt;stroke-linejoin:miter;stroke-miterlimit:10;stroke-dasharray:none;stroke-opacity:1"
         id="path354"
         inkscape:connector-curvature="0" /><path
         d="m 410.594,3009.57 0,87.08"
         style="fill:none;stroke:#000000;stroke-width:10;stroke-linecap:butt;stroke-linejoin:miter;stroke-miterlimit:10;stroke-dasharray:none;stroke-opacity:1"
         id="path356"
         inkscape:connector-curvature="0" /><path
         d="m 1006.96,3012.87 0,81.8"
         style="fill:none;stroke:#000000;stroke-width:10;stroke-linecap:butt;stroke-linejoin:miter;stroke-miterlimit:10;stroke-dasharray:none;stroke-opacity:1"
         id="path358"
         inkscape:connector-curvature="0" /><path
         d="m 679.105,3053.77 60,0"
         style="fill:none;stroke:#e30613;stroke-width:20;stroke-linecap:butt;stroke-linejoin:miter;stroke-miterlimit:10;stroke-dasharray:none;stroke-opacity:1"
         id="path360"
         inkscape:connector-curvature="0" /><path
         d="m 709.105,3023.77 0,60"
         style="fill:none;stroke:#e30613;stroke-width:20;stroke-linecap:butt;stroke-linejoin:miter;stroke-miterlimit:10;stroke-dasharray:none;stroke-opacity:1"
         id="path362"
         inkscape:connector-curvature="0" /><path
         d="m 1382.55,3053.77 c 0,372.11 -301.66,673.77 -673.777,673.77 C 336.66,3727.54 35,3425.88 35,3053.77 c 0,-372.12 301.66,-673.78 673.773,-673.78 372.117,0 673.777,301.66 673.777,673.78 z"
         style="fill:none;stroke:#000000;stroke-width:70;stroke-linecap:butt;stroke-linejoin:miter;stroke-miterlimit:10;stroke-dasharray:none;stroke-opacity:1"
         id="path364"
         inkscape:connector-curvature="0" /><path
         d="m 4832.74,3055.28 c 0.69,195.67 -157.38,354.86 -353.06,355.54 -195.67,0.69 -354.86,-157.38 -355.54,-353.06 -0.69,-195.67 157.38,-354.85 353.05,-355.54 195.68,-0.69 354.86,157.38 355.55,353.06 z"
         style="fill:none;stroke:#000000;stroke-width:10;stroke-linecap:butt;stroke-linejoin:miter;stroke-miterlimit:10;stroke-dasharray:none;stroke-opacity:1"
         id="path366"
         inkscape:connector-curvature="0" /><path
         d="m 4794.65,3055.41 c 0.61,174.64 -140.47,316.71 -315.1,317.32 -174.64,0.61 -316.71,-140.46 -317.32,-315.1 -0.61,-174.64 140.46,-316.7 315.1,-317.32 174.64,-0.61 316.7,140.46 317.32,315.1 z"
         style="fill:none;stroke:#000000;stroke-width:10;stroke-linecap:butt;stroke-linejoin:miter;stroke-miterlimit:10;stroke-dasharray:none;stroke-opacity:1"
         id="path368"
         inkscape:connector-curvature="0" /><path
         d="m 4621.59,3056.02 c 0.27,79.06 -63.59,143.37 -142.65,143.65 -79.06,0.28 -143.37,-63.59 -143.65,-142.65 -0.28,-79.06 63.59,-143.37 142.65,-143.65 79.05,-0.28 143.37,63.59 143.65,142.65 z"
         style="fill:none;stroke:#e30613;stroke-width:20;stroke-linecap:butt;stroke-linejoin:miter;stroke-miterlimit:10;stroke-dasharray:none;stroke-opacity:1"
         id="path370"
         inkscape:connector-curvature="0" /><path
         d="m 4475.13,3332.15 0.72,205.11"
         style="fill:none;stroke:#000000;stroke-width:20;stroke-linecap:butt;stroke-linejoin:miter;stroke-miterlimit:10;stroke-dasharray:none;stroke-opacity:1"
         id="path372"
         inkscape:connector-curvature="0" /><path
         d="m 4754.05,3055.55 207.25,-0.72"
         style="fill:none;stroke:#000000;stroke-width:20;stroke-linecap:butt;stroke-linejoin:miter;stroke-miterlimit:10;stroke-dasharray:none;stroke-opacity:1"
         id="path374"
         inkscape:connector-curvature="0" /><path
         d="m 4475.33,2780.91 -0.72,-205.1"
         style="fill:none;stroke:#000000;stroke-width:20;stroke-linecap:butt;stroke-linejoin:miter;stroke-miterlimit:10;stroke-dasharray:none;stroke-opacity:1"
         id="path376"
         inkscape:connector-curvature="0" /><path
         d="m 4196.41,3057.51 -207.24,0.73"
         style="fill:none;stroke:#000000;stroke-width:20;stroke-linecap:butt;stroke-linejoin:miter;stroke-miterlimit:10;stroke-dasharray:none;stroke-opacity:1"
         id="path378"
         inkscape:connector-curvature="0" /><path
         d="m 5149,3054.17 c 1.31,372.11 -299.29,674.83 -671.4,676.13 -372.12,1.31 -674.83,-299.29 -676.14,-671.4 -1.3,-372.12 299.3,-674.83 671.41,-676.14 372.11,-1.3 674.83,299.29 676.13,671.41 z"
         style="fill:none;stroke:#000000;stroke-width:70;stroke-linecap:butt;stroke-linejoin:miter;stroke-miterlimit:10;stroke-dasharray:none;stroke-opacity:1"
         id="path380"
         inkscape:connector-curvature="0" /><path
         d="m 3265.78,3056.53 c 0,372.12 -301.66,673.78 -673.78,673.78 -372.11,0 -673.77,-301.66 -673.77,-673.78 0,-372.11 301.66,-673.77 673.77,-673.77 372.12,0 673.78,301.66 673.78,673.77 z"
         style="fill:none;stroke:#000000;stroke-width:70;stroke-linecap:butt;stroke-linejoin:miter;stroke-miterlimit:10;stroke-dasharray:none;stroke-opacity:1"
         id="path400"
         inkscape:connector-curvature="0" /><path
         d="m 2591.14,3476.61 0,-840.16"
         style="fill:none;stroke:#000000;stroke-width:10;stroke-linecap:butt;stroke-linejoin:miter;stroke-miterlimit:10;stroke-dasharray:none;stroke-opacity:1"
         id="path402"
         inkscape:connector-curvature="0" /><path
         d="m 2174.5,3061.7 833.28,0"
         style="fill:none;stroke:#000000;stroke-width:10;stroke-linecap:butt;stroke-linejoin:miter;stroke-miterlimit:10;stroke-dasharray:none;stroke-opacity:1"
         id="path404"
         inkscape:connector-curvature="0" /><path
         d="m 2591.14,2889.53 0,-253.08"
         style="fill:none;stroke:#e30613;stroke-width:80;stroke-linecap:butt;stroke-linejoin:miter;stroke-miterlimit:10;stroke-dasharray:none;stroke-opacity:1"
         id="path406"
         inkscape:connector-curvature="0" /><path
         d="m 2591.14,3476.61 0,-251.35"
         style="fill:none;stroke:#e30613;stroke-width:80;stroke-linecap:butt;stroke-linejoin:miter;stroke-miterlimit:10;stroke-dasharray:none;stroke-opacity:1"
         id="path408"
         inkscape:connector-curvature="0" /><path
         d="m 2754.71,3061.7 253.07,0"
         style="fill:none;stroke:#e30613;stroke-width:80;stroke-linecap:butt;stroke-linejoin:miter;stroke-miterlimit:10;stroke-dasharray:none;stroke-opacity:1"
         id="path410"
         inkscape:connector-curvature="0" /><path
         d="m 2174.5,3061.7 249.64,0"
         style="fill:none;stroke:#e30613;stroke-width:80;stroke-linecap:butt;stroke-linejoin:miter;stroke-miterlimit:10;stroke-dasharray:none;stroke-opacity:1"
         id="path412"
         inkscape:connector-curvature="0" /><path
         d="m 3010.36,3058.25 c 0,231.06 -187.3,418.36 -418.36,418.36 -231.05,0 -418.36,-187.3 -418.36,-418.36 0,-231.05 187.31,-418.36 418.36,-418.36 231.06,0 418.36,187.31 418.36,418.36 z"
         style="fill:none;stroke:#000000;stroke-width:20;stroke-linecap:butt;stroke-linejoin:miter;stroke-miterlimit:10;stroke-dasharray:none;stroke-opacity:1"
         id="path414"
         inkscape:connector-curvature="0" /></g></g><g
     inkscape:groupmode="layer"
     id="layer2"
     inkscape:label="Layer 2"
     style="display:none"><rect
       style="fill:#000000;stroke:#3fbf3f;stroke-opacity:0.51785715"
       id="rect4626"
       width="140.58522"
       height="133.59094"
       x="-18.534868"
       y="-19.309633" /></g><g
     inkscape:groupmode="layer"
     id="layer1"
     inkscape:label="Layer 1"
     transform="translate(-613.62982,-699.73914)"
     style="display:inline"><g
       id="g3783"
       transform="translate(-274.17616,79.734908)"><g
         id="g4613"
         transform="matrix(0.56289429,0,0,0.56289429,388.06506,314.32425)"
         style="display:inline"><path
           d="m 1016.7335,631.80604 c 0,-13.48181 -6.6344,-25.4134 -16.81662,-32.70827 -6.59014,-4.72139 -14.66646,-7.50048 -23.39215,-7.50048 -22.20625,0 -40.20875,18.00125 -40.20875,40.20875 0,22.20625 18.0025,40.20862 40.20875,40.20862 22.2075,0 40.20877,-18.00237 40.20877,-40.20862 z"
           style="fill:none;stroke:#3fbf3f;stroke-width:2.5;stroke-linecap:butt;stroke-linejoin:miter;stroke-miterlimit:10;stroke-dasharray:none;stroke-opacity:1"
           id="path384"
           inkscape:connector-curvature="0"
           sodipodi:nodetypes="ssssss" /><path
           d="m 976.52473,616.60479 0,-32.60875"
           style="fill:none;stroke:#000000;stroke-width:2.5;stroke-linecap:butt;stroke-linejoin:miter;stroke-miterlimit:10;stroke-dasharray:none;stroke-opacity:1"
           id="path390"
           inkscape:connector-curvature="0" /><path
           d="m 976.52473,616.60479 0,-71.0613"
           style="fill:none;stroke:#3fbf3f;stroke-width:3.69053674;stroke-linecap:butt;stroke-linejoin:miter;stroke-miterlimit:10;stroke-dasharray:none;stroke-opacity:1"
           id="path392"
           inkscape:connector-curvature="0" /><path
           d="m 976.27973,717.9362 0,-69.94891"
           style="fill:none;stroke:#3fbf3f;stroke-width:3.66160703;stroke-linecap:butt;stroke-linejoin:miter;stroke-miterlimit:10;stroke-dasharray:none;stroke-opacity:1"
           id="path394"
           inkscape:connector-curvature="0" /><path
           d="m 960.71098,632.17354 -69.94891,0"
           style="fill:none;stroke:#3fbf3f;stroke-width:3.66160703;stroke-linecap:butt;stroke-linejoin:miter;stroke-miterlimit:10;stroke-dasharray:none;stroke-opacity:1"
           id="path396"
           inkscape:connector-curvature="0" /><path
           d="m 1063.1548,632.41854 -71.06132,0"
           style="fill:none;stroke:#3fbf3f;stroke-width:3.69053841;stroke-linecap:butt;stroke-linejoin:miter;stroke-miterlimit:10;stroke-dasharray:none;stroke-opacity:1"
           id="path398"
           inkscape:connector-curvature="0" /></g></g></g></svg>