<?xml version="1.0" encoding="UTF-8" standalone="no"?>
<!-- Created with Inkscape (http://www.inkscape.org/) -->

<svg
   xmlns:dc="http://purl.org/dc/elements/1.1/"
   xmlns:cc="http://creativecommons.org/ns#"
   xmlns:rdf="http://www.w3.org/1999/02/22-rdf-syntax-ns#"
   xmlns:svg="http://www.w3.org/2000/svg"
   xmlns="http://www.w3.org/2000/svg"
   xmlns:sodipodi="http://sodipodi.sourceforge.net/DTD/sodipodi-0.dtd"
   xmlns:inkscape="http://www.inkscape.org/namespaces/inkscape"
   id="svg2"
   version="1.1"
   inkscape:version="0.91 r13725"
   xml:space="preserve"
   width="207.47116"
   height="207.47191"
   viewBox="0 0 207.47116 207.47191"
   sodipodi:docname="sat.svg"><metadata
     id="metadata8"><rdf:RDF><cc:Work
         rdf:about=""><dc:format>image/svg+xml</dc:format><dc:type
           rdf:resource="http://purl.org/dc/dcmitype/StillImage" /><dc:title></dc:title></cc:Work></rdf:RDF></metadata><defs
     id="defs6" /><sodipodi:namedview
     pagecolor="#ffffff"
     bordercolor="#666666"
     borderopacity="1"
     objecttolerance="10"
     gridtolerance="10"
     guidetolerance="10"
     inkscape:pageopacity="0"
     inkscape:pageshadow="2"
     inkscape:window-width="3840"
     inkscape:window-height="2058"
     id="namedview4"
     showgrid="false"
     fit-margin-top="0"
     fit-margin-left="0"
     fit-margin-right="0"
     fit-margin-bottom="0"
     inkscape:zoom="1.3350176"
     inkscape:cx="130.81895"
     inkscape:cy="-71.681584"
     inkscape:window-x="0"
     inkscape:window-y="0"
     inkscape:window-maximized="1"
     inkscape:current-layer="layer1" /><g
     inkscape:groupmode="layer"
     id="layer1"
     inkscape:label="Layer 1"
     transform="translate(-378.65507,-297.77007)"><g
       id="g3985"
       transform="translate(-294.37815,179.77291)"><path
         inkscape:connector-curvature="0"
         id="path242"
         style="fill:#7189c5;fill-opacity:1;fill-rule:nonzero;stroke:none"
         d="m 790.47522,177.52028 c -3.5675,3.5675 -3.5675,9.37375 0,12.9425 l 17.56375,17.56375 c 3.56875,3.5675 9.375,3.5675 12.9425,0 l 54.235,-54.23375 c 3.56625,-3.5675 3.56625,-9.37375 -10e-4,-12.94125 l -17.565,-17.565 c -3.5675,-3.5675 -9.37375,-3.5675 -12.94125,0 l -54.23375,54.23375 z m 86.58875,-21.87875 -54.23375,54.23375 c -4.5875,4.5875 -12.05125,4.5875 -16.63875,0 l -17.565,-17.56375 c -4.5875,-4.5875 -4.5875,-12.0525 -0.001,-16.64 l 54.235,-54.23375 c 4.5875,-4.5875 12.05125,-4.5875 16.63875,0 l 17.565,17.56375 c 4.58625,4.58875 4.5875,12.0525 0,16.64" /><path
         inkscape:connector-curvature="0"
         id="path244"
         style="fill:#7189c5;fill-opacity:1;fill-rule:nonzero;stroke:none"
         d="m 863.66022,127.44778 -69.02375,69.02375 -1.85,-1.85 69.025,-69.02375 1.84875,1.85" /><path
         inkscape:connector-curvature="0"
         id="path246"
         style="fill:#7189c5;fill-opacity:1;fill-rule:nonzero;stroke:none"
         d="m 872.90272,136.69153 -69.0225,69.02375 -1.84875,-1.84875 69.02375,-69.02375 1.8475,1.84875" /><path
         inkscape:connector-curvature="0"
         id="path248"
         style="fill:#7189c5;fill-opacity:1;fill-rule:nonzero;stroke:none"
         d="m 825.29647,205.56028 -1.84875,1.84875 -32.355,-32.35375 1.8475,-1.85 32.35625,32.355" /><path
         inkscape:connector-curvature="0"
         id="path250"
         style="fill:#7189c5;fill-opacity:1;fill-rule:nonzero;stroke:none"
         d="m 837.62147,193.23528 -1.84875,1.84875 -32.355,-32.355 1.84875,-1.8475 32.355,32.35375" /><path
         inkscape:connector-curvature="0"
         id="path252"
         style="fill:#7189c5;fill-opacity:1;fill-rule:nonzero;stroke:none"
         d="m 849.94772,180.91028 -1.85,1.84875 -32.355,-32.355 1.85,-1.85 32.355,32.35625" /><path
         inkscape:connector-curvature="0"
         id="path254"
         style="fill:#7189c5;fill-opacity:1;fill-rule:nonzero;stroke:none"
         d="m 862.27272,168.58403 -1.8475,1.84875 -32.355,-32.355 1.8475,-1.84875 32.355,32.355" /><path
         inkscape:connector-curvature="0"
         id="path256"
         style="fill:#7189c5;fill-opacity:1;fill-rule:nonzero;stroke:none"
         d="m 874.59772,156.25903 -1.84875,1.84875 -32.355,-32.355 1.85,-1.84875 32.35375,32.355" /><path
         inkscape:connector-curvature="0"
         id="path258"
         style="fill:#7189c5;fill-opacity:1;fill-rule:nonzero;stroke:none"
         d="m 678.32272,289.67278 c -3.56875,3.56875 -3.5675,9.37375 0,12.9425 l 17.56375,17.56375 c 3.56875,3.56875 9.37375,3.56875 12.94125,10e-4 l 54.23375,-54.23375 c 3.5675,-3.56875 3.5675,-9.375 0,-12.9425 l -17.56375,-17.56375 c -3.5675,-3.5675 -9.37375,-3.5675 -12.94125,0 l -54.23375,54.2325 z m 86.5875,-21.8775 -54.2325,54.23375 c -4.5875,4.5875 -12.0525,4.58625 -16.64,-10e-4 l -17.56375,-17.564 c -4.5875,-4.5875 -4.5875,-12.0525 -10e-4,-16.64 l 54.23375,-54.2325 c 4.5875,-4.5875 12.05375,-4.58875 16.64125,-0.001 l 17.5625,17.565 c 4.5875,4.5875 4.5875,12.0525 0,16.64" /><path
         inkscape:connector-curvature="0"
         id="path260"
         style="fill:#7189c5;fill-opacity:1;fill-rule:nonzero;stroke:none"
         d="m 751.50647,239.60028 -69.025,69.02375 -1.84875,-1.84875 69.02375,-69.02375 1.85,1.84875" /><path
         inkscape:connector-curvature="0"
         id="path262"
         style="fill:#7189c5;fill-opacity:1;fill-rule:nonzero;stroke:none"
         d="m 760.75022,248.84403 -69.02375,69.02376 -1.84875,-1.8475 69.02375,-69.02375 1.84875,1.8475" /><path
         inkscape:connector-curvature="0"
         id="path264"
         style="fill:#7189c5;fill-opacity:1;fill-rule:nonzero;stroke:none"
         d="m 713.14147,317.71403 -1.8475,1.84875 -32.355,-32.355 1.85,-1.84875 32.3525,32.355" /><path
         inkscape:connector-curvature="0"
         id="path266"
         style="fill:#7189c5;fill-opacity:1;fill-rule:nonzero;stroke:none"
         d="m 725.46897,305.38903 -1.85,1.84875 -32.355,-32.355 1.84875,-1.84875 32.35625,32.355" /><path
         inkscape:connector-curvature="0"
         id="path268"
         style="fill:#7189c5;fill-opacity:1;fill-rule:nonzero;stroke:none"
         d="m 737.79522,293.06278 -1.84875,1.84875 -32.35625,-32.355 1.84875,-1.85 32.35625,32.35625" /><path
         inkscape:connector-curvature="0"
         id="path270"
         style="fill:#7189c5;fill-opacity:1;fill-rule:nonzero;stroke:none"
         d="m 750.11897,280.73778 -1.8475,1.8475 -32.35625,-32.35375 1.84875,-1.84875 32.355,32.355" /><path
         inkscape:connector-curvature="0"
         id="path272"
         style="fill:#7189c5;fill-opacity:1;fill-rule:nonzero;stroke:none"
         d="m 762.44522,268.41153 -1.85,1.84875 -32.3525,-32.355 1.8475,-1.84875 32.355,32.355" /><path
         inkscape:connector-curvature="0"
         id="path274"
         style="fill:#56534f;fill-opacity:1;fill-rule:nonzero;stroke:none"
         d="m 807.11147,252.07903 c 9.42375,-9.42375 24.7025,-9.425 34.12625,-10e-4 9.42375,9.42375 9.4225,24.70125 0,34.12375 -9.425,9.425 -24.7025,9.425 -34.12625,0.001 -9.42375,-9.4225 -9.42375,-24.7 0,-34.12375" /><path
         inkscape:connector-curvature="0"
         id="path276"
         style="fill:#3a3835;fill-opacity:1;fill-rule:nonzero;stroke:none"
         d="m 841.23772,252.07778 c -7.87375,-7.87375 -19.82375,-9.1425 -29.04125,-3.85875 l -5.605,13.185 c 0,0 22.02125,-7.78125 33.8025,14.40625 l 7.9,-6.92375 c -0.0637,-6.09 -2.40875,-12.1625 -7.05625,-16.80875" /><path
         inkscape:connector-curvature="0"
         id="path278"
         style="fill:#7189c5;fill-opacity:1;fill-rule:nonzero;stroke:none"
         d="m 727.47397,170.16903 -12.82375,-12.825 c 1.44875,-2.46125 1.13875,-5.67125 -0.97625,-7.78375 -2.5075,-2.50875 -6.57375,-2.50875 -9.07875,-0.001 -2.50875,2.5075 -2.51,6.5725 -0.001,9.08125 2.1125,2.11375 5.3225,2.4225 7.785,0.97375 l 12.825,12.82625 2.27,-2.27125" /><path
         inkscape:connector-curvature="0"
         id="path280"
         style="fill:#67645d;fill-opacity:1;fill-rule:nonzero;stroke:none"
         d="m 739.69022,225.93278 34.12375,34.125 3.8525,3.85375 c 7.295,7.295 19.12125,7.29625 26.4175,-0.001 l 14.8625,-14.86 c 7.29625,-7.29625 7.295,-19.12375 0,-26.41875 l -3.8525,-3.8525 -34.12625,-34.125 -19.13125,-19.13375 -41.28,41.28 19.13375,19.1325" /><path
         inkscape:connector-curvature="0"
         id="path282"
         style="fill:#494742;fill-opacity:1;fill-rule:nonzero;stroke:none"
         d="m 806.59147,261.40403 0,0 0,0 0,0 z" /><path
         inkscape:connector-curvature="0"
         id="path284"
         style="fill:#494742;fill-opacity:1;fill-rule:nonzero;stroke:none"
         d="m 818.94647,222.63153 -3.8525,-3.8525 -30.95,-30.94875 -12.59375,24.115 35.04125,35.04125 c 0,0 6.10375,4.865 0,14.4175 l 0,0 12.355,-12.35375 c 7.29625,-7.29625 7.295,-19.12375 0,-26.41875" /><path
         inkscape:connector-curvature="0"
         id="path286"
         style="fill:#afaeac;fill-opacity:1;fill-rule:nonzero;stroke:none"
         d="m 761.83647,165.52028 -3.9925,3.99125 c 6.85375,-20.6375 -4.08875,-38.10875 -4.08875,-38.10875 l -33.65875,33.6575 -33.65875,33.65875 c 0,0 17.47125,10.9425 38.10875,4.09 l -3.99,3.99125 28.06875,28.07001 41.28,-41.27876 -28.06875,-28.07125" /><path
         inkscape:connector-curvature="0"
         id="path288"
         style="fill:#9b9995;fill-opacity:1;fill-rule:nonzero;stroke:none"
         d="m 771.55022,211.94528 18.355,-18.35375 -28.06875,-28.07125 -3.9925,3.99125 c 6.85375,-20.6375 -4.08875,-38.10875 -4.08875,-38.10875 l -15.01375,15.01375 c 3.03875,4.53625 12.0075,20.0375 5.47875,36.72 l 27.33,28.80875" /><path
         inkscape:connector-curvature="0"
         id="path290"
         style="fill:#7189c5;fill-opacity:1;fill-rule:nonzero;stroke:none"
         d="m 835.11897,277.80028 14.66,14.59375 -2.26625,2.25625 -14.65875,-14.59375 2.265,-2.25625" /><path
         inkscape:connector-curvature="0"
         id="path292"
         style="fill:#afaeac;fill-opacity:1;fill-rule:nonzero;stroke:none"
         d="m 847.99272,264.98528 7.895,7.86125 -28.01,27.88625 -7.8975,-7.86 28.0125,-27.8875" /><path
         inkscape:connector-curvature="0"
         id="path294"
         style="fill:#8e8c88;fill-opacity:1;fill-rule:nonzero;stroke:none"
         d="m 839.26772,273.67278 7.57125,8.18 9.04875,-9.00625 -7.895,-7.86125 -8.725,8.6875" /></g></g></svg>